<mxfile host="app.diagrams.net" modified="2021-12-23T08:17:31.791Z" agent="5.0 (Windows NT 10.0; Win64; x64) AppleWebKit/537.36 (KHTML, like Gecko) Chrome/91.0.4472.124 Safari/537.36" etag="blQLT-AULPfHwtWg2vjl" version="16.0.3" type="github">
  <diagram name="Page-1" id="03018318-947c-dd8e-b7a3-06fadd420f32">
    <mxGraphModel dx="1422" dy="794" grid="1" gridSize="10" guides="1" tooltips="1" connect="1" arrows="1" fold="1" page="1" pageScale="1" pageWidth="1100" pageHeight="850" background="#ffffff" math="0" shadow="0">
      <root>
        <mxCell id="0" />
        <mxCell id="1" parent="0" />
        <mxCell id="677b7b8949515195-1" value="" style="whiteSpace=wrap;html=1;rounded=0;shadow=0;labelBackgroundColor=none;strokeColor=#000000;strokeWidth=1;fillColor=none;fontFamily=Verdana;fontSize=12;fontColor=#000000;align=center;comic=1;" parent="1" vertex="1">
          <mxGeometry x="20" y="20" width="1060" height="810" as="geometry" />
        </mxCell>
        <mxCell id="677b7b8949515195-2" value="OPPORTUNITY" style="whiteSpace=wrap;html=1;rounded=0;shadow=0;labelBackgroundColor=none;strokeWidth=1;fontFamily=Verdana;fontSize=28;align=center;comic=1;" parent="1" vertex="1">
          <mxGeometry x="40" y="60" width="210" height="50" as="geometry" />
        </mxCell>
        <mxCell id="677b7b8949515195-3" value="Search" style="strokeWidth=1;shadow=0;dashed=0;align=center;html=1;shape=mxgraph.mockup.forms.searchBox;strokeColor=#999999;mainText=;strokeColor2=#008cff;fontColor=#666666;fontSize=17;align=left;spacingLeft=3;rounded=0;labelBackgroundColor=none;comic=1;" parent="1" vertex="1">
          <mxGeometry x="840" y="95" width="220" height="30" as="geometry" />
        </mxCell>
        <mxCell id="677b7b8949515195-4" value="eXSPLORE pOTENTIAL" style="text;html=1;points=[];align=left;verticalAlign=top;spacingTop=-4;fontSize=14;fontFamily=Verdana" parent="1" vertex="1">
          <mxGeometry x="348.5" y="40" width="23" height="20" as="geometry" />
        </mxCell>
        <mxCell id="677b7b8949515195-5" value="sUPPORT pLANNING" style="text;html=1;points=[];align=left;verticalAlign=top;spacingTop=-4;fontSize=14;fontFamily=Verdana" parent="1" vertex="1">
          <mxGeometry x="550" y="40" width="60" height="20" as="geometry" />
        </mxCell>
        <mxCell id="677b7b8949515195-6" value="oPTIMAL pROCEDURE" style="text;html=1;points=[];align=left;verticalAlign=top;spacingTop=-4;fontSize=14;fontFamily=Verdana" parent="1" vertex="1">
          <mxGeometry x="720" y="40" width="60" height="20" as="geometry" />
        </mxCell>
        <mxCell id="677b7b8949515195-7" value="sTARTuP rESULT&amp;nbsp;" style="text;html=1;points=[];align=left;verticalAlign=top;spacingTop=-4;fontSize=14;fontFamily=Verdana" parent="1" vertex="1">
          <mxGeometry x="910" y="40" width="60" height="20" as="geometry" />
        </mxCell>
        <mxCell id="677b7b8949515195-8" value="" style="whiteSpace=wrap;html=1;rounded=0;shadow=0;labelBackgroundColor=none;strokeWidth=1;fillColor=none;fontFamily=Verdana;fontSize=12;align=center;comic=1;" parent="1" vertex="1">
          <mxGeometry x="30" y="230" width="200" height="590" as="geometry" />
        </mxCell>
        <mxCell id="677b7b8949515195-9" value="" style="line;strokeWidth=1;html=1;rounded=0;shadow=0;labelBackgroundColor=none;fillColor=none;fontFamily=Verdana;fontSize=14;fontColor=#000000;align=center;comic=1;" parent="1" vertex="1">
          <mxGeometry x="20" y="140" width="1060" height="10" as="geometry" />
        </mxCell>
        <mxCell id="677b7b8949515195-10" value="" style="whiteSpace=wrap;html=1;rounded=0;shadow=0;labelBackgroundColor=none;strokeWidth=1;fillColor=none;fontFamily=Verdana;fontSize=12;align=center;comic=1;" parent="1" vertex="1">
          <mxGeometry x="30" y="160" width="1040" height="50" as="geometry" />
        </mxCell>
        <mxCell id="677b7b8949515195-11" value="Simple" style="text;html=1;points=[];align=left;verticalAlign=top;spacingTop=-4;fontSize=14;fontFamily=Verdana" parent="1" vertex="1">
          <mxGeometry x="330" y="175" width="60" height="20" as="geometry" />
        </mxCell>
        <mxCell id="677b7b8949515195-12" value="Easy" style="text;html=1;points=[];align=left;verticalAlign=top;spacingTop=-4;fontSize=14;fontFamily=Verdana" parent="1" vertex="1">
          <mxGeometry x="477" y="175" width="60" height="20" as="geometry" />
        </mxCell>
        <mxCell id="677b7b8949515195-13" value="Funky" style="text;html=1;points=[];align=left;verticalAlign=top;spacingTop=-4;fontSize=14;fontFamily=Verdana" parent="1" vertex="1">
          <mxGeometry x="623" y="175" width="60" height="20" as="geometry" />
        </mxCell>
        <mxCell id="677b7b8949515195-14" value="Secure" style="text;html=1;points=[];align=left;verticalAlign=top;spacingTop=-4;fontSize=14;fontFamily=Verdana" parent="1" vertex="1">
          <mxGeometry x="770" y="175" width="60" height="20" as="geometry" />
        </mxCell>
        <mxCell id="677b7b8949515195-15" value="&lt;div style=&quot;text-align: justify&quot;&gt;Traditional model made a product to be material to potential to all experts in work include public people in a poor country, and object to dynamic in life with precision competition from modern information, its all are capitol to operation persistent in manage to commitment to long time. An asset in the best from consistent in learn is social in unlimited peace, with give the same quality minimal model to many people. Out the comfortable to made again with value to increase, continues time as a close loop system from single, cascade to unpredictable model. Glad, optimizing, and take to God paradise will feel in Your world.&amp;nbsp; &amp;nbsp; &amp;nbsp;&lt;/div&gt;" style="whiteSpace=wrap;html=1;rounded=0;shadow=0;labelBackgroundColor=none;strokeWidth=1;fillColor=none;fontFamily=Verdana;fontSize=12;align=center;verticalAlign=top;spacing=10;comic=1;" parent="1" vertex="1">
          <mxGeometry x="250" y="640" width="580" height="180" as="geometry" />
        </mxCell>
        <mxCell id="677b7b8949515195-16" value="" style="verticalLabelPosition=bottom;shadow=0;dashed=0;align=center;html=1;verticalAlign=top;strokeWidth=1;shape=mxgraph.mockup.graphics.simpleIcon;strokeColor=#999999;rounded=0;labelBackgroundColor=none;fontFamily=Verdana;fontSize=14;fontColor=#000000;comic=1;" parent="1" vertex="1">
          <mxGeometry x="250" y="230" width="580" height="400" as="geometry" />
        </mxCell>
        <mxCell id="677b7b8949515195-25" value="" style="whiteSpace=wrap;html=1;rounded=0;shadow=0;labelBackgroundColor=none;strokeWidth=1;fillColor=none;fontFamily=Verdana;fontSize=12;align=center;comic=1;" parent="1" vertex="1">
          <mxGeometry x="840" y="230" width="230" height="400" as="geometry" />
        </mxCell>
        <mxCell id="677b7b8949515195-26" value="" style="whiteSpace=wrap;html=1;rounded=0;shadow=0;labelBackgroundColor=none;strokeWidth=1;fillColor=none;fontFamily=Verdana;fontSize=12;align=center;comic=1;" parent="1" vertex="1">
          <mxGeometry x="840" y="640" width="230" height="180" as="geometry" />
        </mxCell>
        <mxCell id="677b7b8949515195-27" value="Constant" style="text;html=1;points=[];align=left;verticalAlign=top;spacingTop=-4;fontSize=14;fontFamily=Verdana" parent="1" vertex="1">
          <mxGeometry x="40" y="250" width="170" height="20" as="geometry" />
        </mxCell>
        <mxCell id="677b7b8949515195-28" value="Influence" style="text;html=1;points=[];align=left;verticalAlign=top;spacingTop=-4;fontSize=14;fontFamily=Verdana" parent="1" vertex="1">
          <mxGeometry x="40" y="286" width="170" height="20" as="geometry" />
        </mxCell>
        <mxCell id="677b7b8949515195-29" value="Adaptive" style="text;html=1;points=[];align=left;verticalAlign=top;spacingTop=-4;fontSize=14;fontFamily=Verdana" parent="1" vertex="1">
          <mxGeometry x="40" y="321" width="170" height="20" as="geometry" />
        </mxCell>
        <mxCell id="677b7b8949515195-30" value="Predictable" style="text;html=1;points=[];align=left;verticalAlign=top;spacingTop=-4;fontSize=14;fontFamily=Verdana" parent="1" vertex="1">
          <mxGeometry x="40" y="357" width="170" height="20" as="geometry" />
        </mxCell>
        <mxCell id="677b7b8949515195-31" value="Innovation" style="text;html=1;points=[];align=left;verticalAlign=top;spacingTop=-4;fontSize=14;fontFamily=Verdana" parent="1" vertex="1">
          <mxGeometry x="40" y="464" width="170" height="20" as="geometry" />
        </mxCell>
        <mxCell id="677b7b8949515195-32" value="Flexibility" style="text;html=1;points=[];align=left;verticalAlign=top;spacingTop=-4;fontSize=14;fontFamily=Verdana" parent="1" vertex="1">
          <mxGeometry x="40" y="500" width="170" height="20" as="geometry" />
        </mxCell>
        <mxCell id="677b7b8949515195-33" value="Accurate" style="text;html=1;points=[];align=left;verticalAlign=top;spacingTop=-4;fontSize=14;fontFamily=Verdana" parent="1" vertex="1">
          <mxGeometry x="40" y="536" width="170" height="20" as="geometry" />
        </mxCell>
        <mxCell id="677b7b8949515195-34" value="Benefit" style="text;html=1;points=[];align=left;verticalAlign=top;spacingTop=-4;fontSize=14;fontFamily=Verdana" parent="1" vertex="1">
          <mxGeometry x="40" y="571" width="170" height="20" as="geometry" />
        </mxCell>
        <mxCell id="677b7b8949515195-35" value="Support" style="text;html=1;points=[];align=left;verticalAlign=top;spacingTop=-4;fontSize=14;fontFamily=Verdana" parent="1" vertex="1">
          <mxGeometry x="40" y="607" width="170" height="20" as="geometry" />
        </mxCell>
        <mxCell id="677b7b8949515195-36" value="Value" style="text;html=1;points=[];align=left;verticalAlign=top;spacingTop=-4;fontSize=14;fontFamily=Verdana" parent="1" vertex="1">
          <mxGeometry x="40" y="643" width="170" height="20" as="geometry" />
        </mxCell>
        <mxCell id="677b7b8949515195-37" value="Increase" style="text;html=1;points=[];align=left;verticalAlign=top;spacingTop=-4;fontSize=14;fontFamily=Verdana" parent="1" vertex="1">
          <mxGeometry x="40" y="679" width="170" height="20" as="geometry" />
        </mxCell>
        <mxCell id="677b7b8949515195-38" value="Research" style="text;html=1;points=[];align=left;verticalAlign=top;spacingTop=-4;fontSize=14;fontFamily=Verdana" parent="1" vertex="1">
          <mxGeometry x="40" y="714" width="170" height="20" as="geometry" />
        </mxCell>
        <mxCell id="677b7b8949515195-39" value="Comfortable" style="text;html=1;points=[];align=left;verticalAlign=top;spacingTop=-4;fontSize=14;fontFamily=Verdana" parent="1" vertex="1">
          <mxGeometry x="40" y="393" width="170" height="20" as="geometry" />
        </mxCell>
        <mxCell id="677b7b8949515195-40" value="Quality" style="text;html=1;points=[];align=left;verticalAlign=top;spacingTop=-4;fontSize=14;fontFamily=Verdana" parent="1" vertex="1">
          <mxGeometry x="40" y="429" width="170" height="20" as="geometry" />
        </mxCell>
        <mxCell id="677b7b8949515195-41" value="Decision" style="text;html=1;points=[];align=left;verticalAlign=top;spacingTop=-4;fontSize=14;fontFamily=Verdana" parent="1" vertex="1">
          <mxGeometry x="40" y="750" width="170" height="20" as="geometry" />
        </mxCell>
        <mxCell id="677b7b8949515195-42" value="External Links" style="text;html=1;points=[];align=left;verticalAlign=top;spacingTop=-4;fontSize=14;fontFamily=Verdana" parent="1" vertex="1">
          <mxGeometry x="860" y="653" width="170" height="20" as="geometry" />
        </mxCell>
        <mxCell id="677b7b8949515195-44" value="Control" style="text;html=1;points=[];align=left;verticalAlign=top;spacingTop=-4;fontSize=14;fontFamily=Verdana" parent="1" vertex="1">
          <mxGeometry x="860" y="250" width="170" height="20" as="geometry" />
        </mxCell>
        <mxCell id="677b7b8949515195-45" value="Sensor" style="text;html=1;points=[];align=left;verticalAlign=top;spacingTop=-4;fontSize=14;fontFamily=Verdana" parent="1" vertex="1">
          <mxGeometry x="860" y="285" width="170" height="20" as="geometry" />
        </mxCell>
        <mxCell id="677b7b8949515195-46" value="Plant" style="text;html=1;points=[];align=left;verticalAlign=top;spacingTop=-4;fontSize=14;fontFamily=Verdana" parent="1" vertex="1">
          <mxGeometry x="860" y="320" width="170" height="20" as="geometry" />
        </mxCell>
        <mxCell id="677b7b8949515195-47" value="Load" style="text;html=1;points=[];align=left;verticalAlign=top;spacingTop=-4;fontSize=14;fontFamily=Verdana" parent="1" vertex="1">
          <mxGeometry x="860" y="355" width="170" height="20" as="geometry" />
        </mxCell>
        <mxCell id="677b7b8949515195-48" value="Process" style="text;html=1;points=[];align=left;verticalAlign=top;spacingTop=-4;fontSize=14;fontFamily=Verdana" parent="1" vertex="1">
          <mxGeometry x="860" y="390" width="170" height="20" as="geometry" />
        </mxCell>
        <mxCell id="677b7b8949515195-49" value="Input/Output" style="text;html=1;points=[];align=left;verticalAlign=top;spacingTop=-4;fontSize=14;fontFamily=Verdana" parent="1" vertex="1">
          <mxGeometry x="860" y="425" width="170" height="20" as="geometry" />
        </mxCell>
        <mxCell id="w1mqu7RKeOQajbzi-_af-1" value="" style="shape=image;verticalLabelPosition=bottom;labelBackgroundColor=#ffffff;verticalAlign=top;aspect=fixed;imageAspect=0;image=data:image/png,iVBORw0KGgoAAAANSUhEUgAAAooAAAHLCAYAAABPmLnYAAAAAXNSR0IArs4c6QAAAARnQU1BAACxjwv8YQUAAAAJcEhZcwAADsMAAA7DAcdvqGQAAM/8SURBVHhe7L0FmBRZmra937/7fbs7s747uzs7vtPT7jKt00or0A7t3dACjXsBVZS7u7u7u7u7u7tSUG48/zmRWTQUCZRkJiXvw3VfZGZkRmadsDuORPzV5OQkLl++TBAEQRAEQRBX4Y74V/zByMgIQRAEQRAEQVxleHiYRJEgCIIgCIK4kYGBARJFgiAIgiAI4kZIFAmCIAiCIAiJkCgSBEEQBEEQEiFRJAiCIAiCICQiN1Fsr89DVkaERMrrGiR+RhJD/e1oaW+XOE029KEyPx75BdnoHZI0fZUMtqEgMxJFJcUYGJYw/SZ0tlahb1DyNFkzPNiL5tZGidNuR09bJfKybrKsh3pRVZSI3OwUdC/3bxvqQ3VJomgdys9C/8CQ5PfJkcHOarT2DAuP+zprkJ8Rhcr61ZXX7ehpKblhO8rKiEFd60/bRkdDAXIyYtHY0X3dZ2/GYHcDWrv6rj4f6q69Ou/y+qbr3ksQBEFsDeQmigVRmlA8/ZZEnMNiJX5mKb2tefC0PIiAxHSJ02VDE7z0voCOvhIa+yRNXyXdedA/ux2mNhboGJAw/Qb6kBlmABs7DTR1S5ouW/q7KhHseAouISESp9+O+jwPaJ27ybLub4C32V6oKR9Adc+SaRIZQkWKNTSU3oOB4VG4+Lqgu29QwvvkxRCaS8Nhqf05MutEv6OpLBC6p3fCMyphyXulQ22GjYRt6R22nh5FdkW98J7iWAOonP4YCcXVN3z+eobRVZcEW72vEV8kEvnBngYE2n4HRcVPYWd1Ggn55Us+QxAEQWwF5CyKH8IrxBclRWnXUdvcyt4zjO72OjQ01GFwoAfNjZVoqC9HW2en8PnBvnZkRxtAnYtlYAAaW/ln+LwH0CZ+b1NLC4bF3zc80IWmhgq0dbShtYlPr0F/f7fwvtaOTnR31AqPG5oaMbT4mcFetDRWoKWtFe3N/DNV6B3sQlFaIFLTEq7Wdg30tIg+y7+zqX5JjeAgOpqrhWmNzU1Xf88NLBHFof5ONNZXoKO7Fz0drBz455tqMcBrMYeH2e9JhoXiu9DWP4HCymr09ouEpK+rSfRbGmrQO3C9LA2wMmvi82lkfzub1tZUjuZWVkbs9/Z2NrDPVKOrs1n4fEtbu/Bbhdf5/BjNbW3CfIZYWZZkOECblb2FmwMamhuFeYj+1hrR+68pRxHD7O+oF6Y1tjSjLncFojjchxa27PhvGuhtvfp7egdEtXUjI12IcTqCC+c+QFbtTzVgI8Ps97SIfw9bdn2Di+/ny4z/nRXo6mpn5cz+NvabuoT1jb+vH83CZ1i5snIaHupHm7D8y9Hd/1NN5fAQW9fErwvTxHLa21mBcIcjgqzF5JSgvasHPW1lSI31RlFVzdXPjwzzz1eJP8+WyTU11AO9bex3VaKrtw9dbaJ1s6m5AYM3qcUWieIOOHi7Xt2OQl0OQfnMWzBwdBKW5Q2iODzEymfx+8vR2SMqu/7uBiR4n4US+/1Bialo4dtHSxqMz74FfXsrDFxTjkMDfD0Vfb6FrR+i9YDPexDtLZXCsu5s48ugEh1dHWhtZO9rb7+6nja3tArryaB4uTa2NGFoBTXqBEEQhHyRsyjuRlR2kcTpI0M9iPc4AUWVHxHgfg7qijuEA6+e8VmUNXWjpdATGkw0FmtPNG1s2Gf6kRWjD93zO4XX1NS+R1RqmnDg6a2Jgc6FHTAxOQltpR1QuXAcjXUJUD23HQYm52Cju1v4jJLSVwiOi2ZCNoz+5hxYaL0PfcMTMFB5F4oK36O8s+q6GsXBzhJ4mH2PC+yAzD+vovQ5AuMTRQc7JgL5SRYwVH5fmKas/A1CEmIlH+yXiGJbZQg0z2yHnZM+rPQ+FX1eaTeCEtIxNNgHT8Of/nZF5b3IrWpGR1Uc7Iy+EQ7wimc/hKO7ORo6B4T5D3ZXIsD+KFTY71RW/AguAZ5w0n0Lxg6WTIZGkBOqCBXFj2FtelCYp6NfGNoasuFm9hXULnws1NZpaP2I9JJatFfHwkjlmu831GTi2YeiVFv2+ofCa6JyjES/IBXDaCwOhbXe58I0FdW9cLU9BbXlimJPMcxVPoCBqQo8bfZd/V5Hfz/0MJErS7eBqfouKCnsgJ2DNlILyjE01I3cGDMYqX0kfv+7sHO3Q0N7l/AdNWlmUDrzDmwsT7Fl9zbM7R0Q738CqqxsPLwMoCF85gN4Bvsjg81HV1m0/tn6+LHyYrLIJKuM/b16qh9CU2U3VM++AwsXW7R09iI39Kz4O0V4xKTfUKM4PNiJtFAd6Cm/J7xHSYEtLy9XtPX1C9Pr892hfvYDOLnowkzrY+E9qiqfIzI9X+LJhkgU34Vv3E+16x01iTBhy0lDWw0d7Pl1oshONuryfWCoLvr9amw7MLbRR3VLJ6qS9a/+do4Z+7vCvdjyYo81tPbDy9cZLd1MYJvyEeh0FMri92lq7kdEUioT3mEM9bXC2/wTaGofFP3+M58iKjkCtlpvwdRSma2ne4T1VEPtGFLzEhBgK1quKqp7hHVM0t9IEARB3HnkLIrvwtpeG2FB1j8R5ol6fjBfFEV28NDRP4WoKHd4WO5hz7fDMSgMvS2FCHE7xQ58b8HcTg/J2VloyXcTDj5GFhqIjXGEve4XuHD+c2TVdFwVRUXFT+Dtb4/ErEyMNIpEkf8OByZVsRF2MNPkUrcbmbWtV0VR8ez7cPGyQVxaIhPIhmtEkYlgmDp7/6fwD3NGXBiTQrUPmIR+g8LmfrSXBEDj/HboGSkhJsYZLsb897+P5PLmG8tEkiiyv4XLik+ICyL9taF1nh1Y1Y+ipnsQhWlWMDi3A+oa3yE0Ohj1DWVwM2AHZMU9CI1wRbCnIjuwb4eNX5AgBUnex4SysXAwRFyUA2zF0natKPLnqjonEBfjjrKGdiR5HYSaxgGUNHahszJIEAUzJ1u0t1QjNlBFqM01MFdm5ZKMtrIQ6DAB1zE4i+gYF7iZfiv8rXFFtUxSK+BiwL5vsRxjrGF4XiReKxFFRSZati7GbDk5wESVl80uZFa3oq44ULSsz+6Ed5A7iqrqUZlhz8qei81x9nvcEep+RpB5XgPa3S8SRf79imr7ER3lhvyKGmQGiNY3Df3T7Dc6wlxNdMKhqX4Y4ew7hXXh9Ncoau1Cf0serLXfZxLligH2mxO9DrPyfRdRueVoKo8UL+u34B7ghkL2e5aKYnGcAZNLtm4bnmPrhjsTrsPC++39A5hci0WRPVdS2AX/cHeE+6gIYq2rr4jG3iXlxZAkikXxTHjZd2hZmAu/8VpRHOyqhavRR9CxMEEfO6nJCVdhwrcDfuxEpKM2BV5W+4X1xdHDBuk5qUiN1BHWR23DM4iNj0BHex38bdkyVngX9m7mwjpjrc3KS/FTJBZUXBVF/jdZOBgjLikc9TV5gigqnn4bzj6OCPFg66gCf/4ubJ2NEeWjJHynpZMzuqXZ/5cgCIKQGnIWRX6QWILSd8itbrxGFN9DepWoQ35LRbDQ3Gnu4Sk8r8ywE2p+vGNT2ft7EevOm/veh2eAExJivRDmrgDFMzvhn5CFHrEoGluZoWNxgIRYFI2tjNDO5IG/1prnJPwOl6BodItFUVP3AlrE06/vo7goikywNPYxmXBHcko42ntFTXNp/qfZge89uHjbCL8n2ldZeK97eBIGhXldg0RRfBuWnp6iGsjBBviY7IGq6tcobeWfqYGt0nvQNVEU+ih2lAdClb3fwJSJG/uuhHBLGDBp1dTTRsdwL9x134KK3jk0doiaF3uak6HHfst1oqjwIUJScn76TUwwh4cHmIjFIjbSVCh7IzsTQbSayoOY+LwFW/9A4b2ZIUq4wA74jh6Wwt8a5y8qF5fAaDSUhUJfkX2Xm/vVeZclW0CdScJKRFHX6AIaeX/M4X6k+50T5h9fxAdVdCDS7hCUz3+IgiY+jwGE2X6JCyrfIa+6RTzfXgRwcVE9iNKGNrEovgO3sLirTZ2CKJ77GLF5lcLzJG/R+hSeWcC+sxep3mx9Yt+ZVCpqgue3MRocaEdukhf87A+zv/8thGaUsGk9SPY4I7xXch/FfvgY7oSyxhGUN3cI04cGWuGuz0RU8zQaOnrEovgOHALFfUAHquGs/Sk0dQ6iul30e6/lpz6Kb0PpjAj+XEXpMyQUiP6epU3P/PcPD/ehIMUbQW4KbP15C57RSWzaIPJC1QVpiy0Q9W/sak6CIXtu6uoorI9tlVEwvMCWqaOjIKH8Pa0lgexk4R2YuXujf1EUz3+P8rYeYXpva4kgikq66uhnzwebMmGs/gG0dRRQz5dzXxGM2O/Wt9BEmwQZJgiCIO48chbFXQhJTkVnR8tPdLZhYGjoGlH8CoUtoubCttpo6LODlURRHOxBmBNvvvoQdo6q8HTVFKOF+Mycq6Jo4eIhHKSE3yEWRStHN/SIXxuoDhMOsA7ewezgKBJFHTMT9C5+ZslgloHOYvjaHIGygujArKSwHbo651DBDvYJnofYa+/D2vbCNb9HE9EpqTeObJYoiu/AOShCLDKtCDL77qai2Fboyb7rbejpH7/uu3x9nZjk1sGGiZqOmTpae0R97Pq6imDB5e1aUTz3KeLzK8S/aQCFCRYw1vwU6kofwdzimFDDdTNRTPE7yb7/PVhaK133/VEJiagu9IXO2bdgHxQmnvcKB7OIRdHInAm9IPkDyA1WE0RGsii2wkv/U2joHEFV20/9NIXlcW4PsqvqRaJ4ZjsCkvKuNnMKonh+N5KKRXKUEcibkD9HcmkVe96P7IALwjLmotjfVYNQp6PQVt0NZZVvYCtu8l+eKDbCQWUHtI2V0NQl7vM41I8wh73s+/ejrKVDLIo74RWdKJrOPuOp+/ltRPEdGBid+qn8Pc1RXF2DQfG6dl2NYl8L4j0VoK32CVSUP4eNyfdCE/JyRbGh0EdYpo7BEVd/w2BTOgzV3oeRpRU6F0VR9TSaekXN6VdF0dhA9Jm2fJhqfgx9A320C/OoggWJIkEQxLpGzqK4jD6Kp/ehvEtUI3FLURzuR6o/P7DvRFRWKYZGhtDeWIzS0izhEh+LTc+SRFHHQAEVzV3C4ISiWG3hAO8dk46e24li7yCa6wpQkh+L/OI8VBRGw8n4MygqfICIzBLkhqtC+cwOBCZkYpCPJG0uQ2lJBpqZRIrmdQ0SRXE7PCMSxSJza1Hsqo0VDtxG1uboGhjCQG8LqkozUFlXx8pmAD7GO3FB4yCKa1uE57XZTkKz/U1FsbsUVhofQlvvFPIrKtDWkgEj9v6biWJBtA5U2N/qy0SD/63drRXC39rU3sV+WxJMVN+BDq+57eY1mn1IC1AW+kuuRBRNrWzRJbzndqI4hDi3fVBS/BzRGXnCYIn+rgo46b4PZa1jqGruXrMoVmfaQ5193tHXE3WNjWx91hZEa3miOIRgq91QUt6LlMIy4ft7WnJhpb4dKmy9amHrq0gU30dAYqbw+eWJ4vVNz0u5VhRb2e/RZCc35s62qG2oQ3majbAtLVcUu+uSYaK2Azqm2mjsFK3PZclm0Dj3NmwDQpmIkigSBEFsRuQsijtgYHgEjjZnr8M/PAIDyxDFaiY7mkw2dHQPwo0dsNuqooWBKhpq38Le5gyMNT6GmtoBlLXeWhQvKLzLfsdhOFidFN6jqnwQpW3dV/so3lwU+5AdqiE0ORoYHhN+uwU7mCtf+ApZVa3orUsSmtbUlL+GnY0CzLQ/wQXFb1DYKOE6disWxQY4qr4HFaXdsLHVQkF5EUIdeI3qB7C0OgMbk33sb/uACS8/8A8LIqfKxEBH7xD7nadgpM1+J/vdNxfFMlhrfsTE5ATyygqQEqQhvN/A1ghd/cNoqQyHvsJb0ND8Ho6udmipS4G59sdQvfCl8Lea63zG/tavkFPTiuH+RgTbHYQSE0lj4xPs+49D69y77LmsRHEE9UX+MFTZCRW2LOzZcrEx/AZKCu/BIzxc6AO4ZlHMcoS6wnbYeLqioT4TTmzZ8t8TnMZPfHqR7iNqGjc1U0BkShbql/RRrMp0hK7idrZ+7hV+n5X+F+wEg4thqlADKHtRDILW2bdhbG+B+rocVt7fCb/fPVIksoWR2sJzQ6MTCIyORdsSURwZbEe0x0koszLglyTi676e8naoah1GQU3TT30USRQJgiA2FXITxeJ4I2iq7JKIjZsH+oZ6keynxJ6fQGV3r/CZ9voEJgy7YO/nLzzn1/Lzs/pe+Iyhpakgc3UFPjDX+kJ4zUDvLDLLRdd766tLhIn2Z7D38rtBFE0tjBAZoCx8RkfvDPIrqwV56G/Jh73xVzCxs0Hf4mdGmhFgth8m5lpo5tdRHGhBSrAOdNVEv11Pdx9iM/Ku9kFsLA2Fjf43wjRdzeNIKblJDWpPIczVP4Wtsz06mbi1V0fCSOVT+MemikWmDeF2R6GndxDlbaLPFMTqQY9/r8Z+ZJTVYqC9HAGOTMLYd2mq7IF/VBA6esVNr+zAnhSoCV3xb4xJ84cxO/AvimI+E3dNje+RXMSlSDT/6iwXocw0Vb6Am7ctPKz2QddEHU3dfRjsbUak6xHh79LUV0P7wCCayyNhb7hXeE1b7TCbV8HV/n+97aUIYb9NeL/WEUSHmcNIc9c1TavX0N+EQLvD0Nc5jVouDL1lsNf9GraOLugW3jOAggh94e9MLuUDgzoR56oAHY1vUNy8OJ9B1BdHwMX0B9F3qnyDsKREdPeLRoHXZdlBU/VThKYVXhXFnFC2vml8i7Qy0UWxc8LU2ef2Ib2cX9KmH3mh2sK80srbhcvrJPqdE8/7AOJibaGv8Rncw2KEZd9emwBLLT5tFzzD4tBQEQZTlc/hH58izJv/DdV5AbAz2CO8R1v9e0SlpaNvWNS/tbHIFwYqXyE0dbHPaDP8TffByOQMajsW/8afqM9xZvP5AsFJ2TdMW6Qs0YIt/z1IYevKUH8XssI1xL//B4RH2MJM70vYevkIfQ75NUrtdT8Vptt7+aK1JQ2W7LGtt4dIFNl7BnqakBVjAj1hHrtgZqXJTlhE285QXxsC7b+Dpp4K205EotjXVg4X413QsrYQ/ab2Itga7YG5hbkwKpvXktur7oa5vRHapXmNUoIgCEJqyE0U1wUS+ihuSph8FKW6IizYGrkVdcJrbRVBwihWC1fnO3ZnF4IgCIIgNhYkipuSYeRHaUCZX4rkDB8R+454VOz7iC+ka9YRBEEQBLE8tpYodhTBx0MLUXGJPzVHb1KGBnpQluUNb1cNeHLc9ZBdUnl1RCxBEARBEMTt2FqiSBAEQRAEQSwbEkWCIAiCIAhCIiSKBEEQBEEQhERIFAmCIAiCIAiJyEUUW1pakJqaiuTkZIIgCIIgCEIKcLfijiXJvaSFXEQxMzMT7e3tuHTpEkEQBEEQBCEFuFtlZGRIdC9pIRdR5H/E0NAQKBQKhUKhUCjSCXer9PSb38pVGpAoUigUCsvCwgLm5uYwMzOD2dlZ4TmFQqGs55AoUigUihzCBZHL4fz8vCCIHP6cv06hUCjrNSSKFAqFIuNwGeSCKCn8dZJFCoWyXkOiSKFQKDLMckTwViJJoVAodzIkihQKhSKjLDYvLye83+KVK1fEzygUCmV9hESRQqFQZJSVDFhZiVRSKBSKvEKiSKFQKDIIrx3ktYQrCdUqUiiU9RYSRQqFQpFBVtPvkAa2UCiU9RYSRQqFQpFBVlM7uJpaSAqFQpFlSBQpFApFBlmt8FHzM4VCWU8hUaRQKBQpZy1NyPxz1PxMoVDWS0gUKRQKRcpZS60gjX6mUCjrKSSKFAqFIuWsRRSpnyKFQllPIVGkUCgUKWd6elr8aOUhUaRQKOspJIoUCoUi5axV9NYimhQKhSLNkChSKBSKlEOiSKFQNktIFCkUCkXKWavokShSKJT1EhJFCoVCkXJIFCkUymYJiSKFQqFIOdT0TKFQNktIFCkUCkXKoRpFCoWyWUKiSKFQKFIOr1Gk6yhSKJTNEBJFCoVCkXJIFCkUymYJiSKFQqFIOWsRRbqFH4VCWU8hUaRQKBQpZ25uDvPz8+JnKwv/HP88hUKhrIeQKFIoFIqUs5bmY/45XqtIoVAo6yEkihQKhSKDrKb5mfonUiiU9RYSRQqFQpFBeD/DldYMUrMzhUJZbyFRpFAoa8rU1Ch6eorQ0BiD6uogNDREo7+/kknS6vrobZasdFAKr02sbepGZmEDAmOL4B9ThPyyFlwenxK/g7LcTE1MoLGyEkXpGciMiUVhWhq6WlqwsMp+oxTKVg6JIoVCWXG4BLZ3ZCEpVQXOHq/C0WMbHLzfhqPvTjgH7YZb8OfwCfkCxSUuGBvrFX9q62U5tYpDI2NwDs7BbsUA/OVkIP6sEI7HFWPw6PloPHEyGM8fdIOCWRTSCxrY/Eh0bpXa0lIEOrrBWtsMXo7BCPFPRVREIYL90uBo6gY7XTNkxMYJIkmhUJYXEkUKhbKiXLzYguR0dbj5vQtb17/AiYmhbcBHMPR4C6qOL0LZ5kmYuG+DS+wROIR+Bc+Qr1BXH4UrV7beAI1b1SrOMOmLTq/GxxdCsU0vF69ZlOMFy3I8YVKI+/Uy8b+aKfiNeiIeN8zHI+opeJRJ5F7NILR1D4vnQFnMCDvIBLt4wNk6EKHhlUjPG0FR9Qwqm6+gqgWoaLyCgqopJGX0wMs9mQmjJTqamsSfplAotwqJIoVCWXa6e4oQk3wOXiGfIyRJARF5JvBNV4FtzGGo+X2BA4478Kn5yzhicBfsIr6HbfRBmIV9B1Of91Ba4cPmsLprC27kSLpUzsTkDCx8c7BDOwO73Nrxvmsr3nSox4vWlXjKtBAP6GfjD0wU/0s5Bg8b5gry+Aj7/z61JLx51hd9Q5fFc6J0NrfAy8YDXl4F8A9rRXRyH7KKL6OsYV6QxEUKq6eRWXQZyTkjCI9ugZmGFQZ7tm5tN4Wy3JAoUiiUZWVwsBZRTA7j8gwQELMfyeUuCM3Wh0fiaZiGfoszbu9hr/lz2Kt7F9TtnoZl+A8wDv0OukHfQMP/S+i6vM5Es0Q8t60VXqu4KIsLV67A2DMT2w0L8I1vP7727cMuzw5sd2rEq7bVeMasGA8b5OBP2mm4TzeTiWMRHjcuYK/l4n69LNylmog9mkEYm6D7Qfd3dcPdyh0Jad1wcK1CQFgb4tMHkVc+ebU2kVPWMMdem0B6wSUkZg0LMhkY1gQrbRsM9vaJ50ahUCSFRJFCoSwrcUlnkV7pisQSG7j6vw9n352w83oD1h6vwcLtJVi4vghz91dhHfw5LCL2wyDkW2gGfAVl709x1nMXTrl9ACuv9zA23i+e49YKl0VObkkz3lZLwKeeXfiM8blXFz5yb8MOJopv2NfhFesqoQma84x5CZ4yKcRjRvl4iMkjF0cukL85GgDH4FzxnLdmriwswN/eBVl53SismkZC5hDS8kYFSby2NrG8YQGF1TPILhkXpnORjEzsRXBUBzx8qmCtZY5xdnyiUCiSQ6JIoVBum56eEkQkn0V2nR9Sq9wRX2aHqAJzhOboIzBDEz6pF+CedAZOcUdhGfotDJxfhInTs9C0fwan3d7DEZd38aPDOzho/SJSswzFc9164X0WTxlH4F0mgx+7t+NDtza859KCHc5MHh0bBFHktYovWVfiWbMS/OlwAH73hT1+84kN/vd4MO5loniXVhp+p5GMp4+4on0L91dsqa2Bl0PgVSGUSDNQUjuHoIAcGCmbQfecPqxNAhAe14XAiHZ4BzXDSDcIqZEx4rlSKJSlIVGkUCi3TVa2AdLKnZBZ64PkChfEldoiosAMIdl68GYCaRfwIVziT8A6bA/M3F+De9wReCYrwD74U5yyfhrf2b2Fr6xew+cWr8DEfQfGt2it4silCbx81BcfMDn8wLWVSWIzdjg1iSWxFo+dicRT6ml41jAfd//ghRc0MvCGZSVeMSvD7752wl1qSfhfzVT8Vj0J/33AG74xReI5b71EefsiJbVRoiAWVY3ByymCSeIMfNwT4eMajfzSEZTUTMLXMwFWZuFCf0ZP/0Y4ulXA4Lw+Lo+OiudMoVCuDYkihUK5Zfj1/YIi9iKr1g/p1V5IZMIYkauHsDwjBGZowNL1LzBzeQ72Uftg4bFN6LPomXJeqGF0jjkIFatH8LnlK/jI9C94z+g5fGv4IFpa08Rz31oJYGL3qmYG3nVuxk7nJrxjXy+MduY1iU8qxuO/39HHo+z/+w/4YadVtVDr+D6Tyu2OjXjifBz+50cv/EEjGb9RS8R/nY3AZxf4AKGtF75OWmkYo7R28qoc5pUMCv+XN8zBRNUMJmoWCPLPhJ9HPKqu6a/IhVHzjAF8gpvh7lsPR/dqaJx3QnlunnjuFArl2pAoUiiUW2ZmZgzeIZ8jqy4QqVUeiM4zhKPP2wjNNYBLyBcwc3gc9mFfwcLrDbhE7Yd7ogJcE07CKe4Y7GMOQ9vxOXxq9ATeMfgztuk8gQ+170N+sYt47lsrOrYx2GZeinccG/CmbQ0ePBSAR89E4UXjIvz2I0v86TsPPHAkEDtMSvGVTy++8O7BLo8OoXn6FZNi/NfntkJt4v+oxuO/lGPxykEHzMxuvTu5DHR3w8HEWRA/PmglObURF/afZI8XEOibipOff4+oqHJYGziitH4SFU0/9Vnk77cxdIWtbQZcPGtg51wJTRU/pEVEiudOoVCuDYkihUK5ZaamLsI37Etk1vohrtAcjkwInQM+RGC6Kux83oG583OwC/oENr47mSSegUv8cdjFHIJ15I8wC/sBBj4fYI/uXXhF61G8oPYA3tX4IwrLPMVz31rRtIrCK6Yl2GZdhYeOh+I/XtfGX0yKcM8PnvjTl064l0nic2eisS9wGD8EDOEbv3585tUt9GV8x6Eev//SEb9SisF/K8fh30+F4EMFd6F2baultrgYvm6RKG+YRWR4AQyVTWCqYYnC8lEc+/hruNtHwFzHDhHxOYjPK0dOeQ8TxLmrspiZ2wWlw3pwdKuChW0hlE/bC3dxoVAoN4ZEkUKh3CZXEBT2DdwC3odHyGfwidoH58CPYeO5DV4JJ2BodQ9MHB6Hc8wBoRZRuHZi+D4YhnwLncCvoeH7KU6Z3I3nmSR+rflrODi/gMnJrTkIIyGzGvd+ZYfffmaH+xWi8JtP7fC4Woogifd/54nffmiOL1xacSj0Eg6GjOK7gEGhVpE3Qe90asQz6mn4168c8K/fueI/3lZBZkmteM5bKz1tbdA4dAbKhy/A3jIEkZHlsNC2g7mWDXROa0LhmyOwNnZAOJM/z5hAxOWWoLThp2bqisZ56J0zgoV1Lo5/cRynvz+OebrHNoUiMSSKFArltpmfn4FP8GeILbREVIEZvGJ+ZAfgH+GXoQbPJAW4MWHkkmgTdRCmYT9AL2iPcO3ECz6f4pznLpxxehN7tH6L0wa/R0DoXvFct1547V9kViEeUw3F06bFeFovBw8cCsTbNtX4yLUVn3l04lv/QewPvijUKu5ljz/37hZEkV8+5zXbavzpRx/8bJsm7jlki/JGZj1bNDNTU9BUs0ZcWi/yKyYRHJCJ8NBclNXPCINWCmsuIj6/HGFMFlOLG1lZzVwVRU5Wfi8UvjsLjdNGUFO2EM+VQqEsDYkihUJZVkKjf0RUvjEi+WjnXAMEZGrCW7gsjoLQ3GwbfQhm4T9Al0kiv0vLee9PcMr9Qxx1eQ8HHXfggM0rOGTxNCLiTonnuDWTW1WPp9WD8GfTIvzFshzb7GqFi23z5mV+bcWvfPuwx38A3/j14UufXuz27BRGSPN+jfzSOc+ZFeM+hSg8o+SO+o5u8Vy3ZixM3REW24K8iilUNP00YIXD+ysW111Gfs0QShum2GvXT+fXWoxLbIKnTwHMTdzEc6RQKEtDokihUJaVrBxjhGSoISzPGEHZOvBLVxNGN/OBK/axh2EesQ/6wXuhziTxnNdunHT7EIecduIH+7ex1+YN4fI4P5o9hYrqIPEct2b6R0bxjrancFu+58xLhQtsv+VQj3ddmvGRezs+YWLI+yVyaRQkkQnkDucmYWS0cH1F8xLhAtxfmXhjdGxcPNetmYjQBLh55SO7ZAJl9dffsu92FNfOIrPwMhxcMhEblSqeI4VCWRoSRQqFsqw0NyfBjwnh9bWJoots84ErRvxOLP5fQtHrE0ESDzJJ/F64fuI24f7P/PI4ZyyexMXRNvEct2Z48/NxhyA8qpeGP5sWC7WKvEmZyyIXQn7fZ167KLrOYotQ2/gmv2OLTTVesCwT7gX9iFYCTILit+Cds69PTXUDjIxDkJ53CQWV0zfUKt6MsoYF4Q4uKTkj0NPzRXNTq3iOFAplaUgUKRTKsjI3N42wmMMISFeFX4Y6PFMURbWJ7DU+eIU3Oav4fo7T7h8JNYn8IttfWL6GXWYvCtdPfE//CUTEn8HCAg0ayK3mzc+Bwj2c+W36XrSqEJqVX2dC+JZjg9DMzC/CzeXxdbtasSSW42kzXpuYh9c1PdE5QPu7ubk5WJp5sPWyFZlFYyiqnhEufyNJDhfhkpjPpDIt/xJ8g6vh6hx49T7cFArlxpAoUiiUZae7pxC+kT/Al8miR/JZoW+iTdQBGIV+JwxeOe+5G8dc3hOam3lTM5fEnYbP4E3dJ3He+jmMjfeK57S1M8fERNc/Fo9oJ+IJJotPmxULtYUvWVcwKawSahhfZf+/YlPJJLIcz1mUCn0aeZPzo2qhiMkv3ZKXxZGU1pYO6Ot7IylzmMniZRRUTaG0fg4VTQuCNC7Cn5fUzQk1iekFlxGb2g89HReMDF8Uz4lCoUgKiSKFQll2rrB/tfWRcAv9StzsfAyWkT9CP+RbqPp9gTMeHwu1iXtt3xSam3lN4lt6T2C/yRNoaU0Xz4XCM3TpMr6zCsQjusmCAD7FRJDXLvJ+i89blAn/P8eec4l80qQQjxrm4gn1ULgnZgv3jKaIwoU5O7MQhkbBSMgYRFr+KLJLxpFfMYXC6hkRVdOCIGYVjyMldxThse3Q1/VAV2ePeC4UCuVmIVGkUCgrCm86bmlLg2fI57BlwmgubnZW9vkMp9w+xAHHHfjaeht2mf4Fuw0eg5bzW2hq5RczphqwpRlksqjiFY1HVYPxsH4WHjXKw+PG+XjCpABPsP/540fYaw9rxeENHV+EZRcLtZGU68PFuaSoEnq6nvAOrBCEkfc/5NK4SHLOMGKSe2BlmwQzY0/0dm/N+41TKCsNiSKFQllFrmB0tB1RscdgZPswdJxfxAWnV3HG7iUcsXoWh4wfwAWz+xGVrLLlB6/cLlPTM3CMTsETR/Vw32knPHAhCA+ohArce9oDT5+xgIZ3JJq7e6m5+TZpamiBkoI+DuzTgo5uIGwd0wUsrBNw/rw9FE7qIzkxC5cvj4k/QaFQbhcSRQqFsuLwO6sUlTghIv44IlKVEBh3GG6+OxGfpY2olLOwdXsRAVH7kZiqjMGhehKcm2R0fALuCZnYqeuNh5UD8YByCP7nMz38+w9m+I/Dtvjn99Xx7DknKLmFoamrj8rxJuE1is2NrTA1dIWenj+sbFNw8IA+vvpCBz/+aIcPdhyHuoYXdLScER2RhImJSfEnKRTK7UKiSKFQlp2FhVm2vTUhJukM4vNNkFUXgMwaX6RWusM75HMUNUYgMd8I/rGHEF9ij6g89jhqH+obooUma4oovPm4tW8Aey388ZB6JB42yMEjhrnCiOY/HPLDz/Y64R8UQvFPH5jgEe0MPKaXjm1aPkgsqsDM7BwJozi8HKanpxEXkwYdHR+ERrciLm0AiZlD8PArwb4fzKGll4UfvtNHZEIHEjKG4OyeAxMjNwwPjWBhnvp6Uii3C4kihUK5bXgNYmmpC2LjT8LR7UVkVnszQfRDOvs/tcoDyRVuCE5WQFSaMvwjv0dYlhZiiqwQVWiBiHxTeEftR1j4t6iuDsTs7Na9SDSXvIisfBy08sJjh7XxkF6muF9igTBghY9sflApDn/3iaUgiv/5kTn+zKY9ZVIk9Fl8TCUQH6iawiIoCnXtXVtaGNtbO+Fk540D310Qagvj0weQnD2M1LyLyCi4hJScIRw+aCSI4rEjxkjPZ68XXkZa3ihiU3tx4Ac16GpYICM1BzMzs+K5UiiUpSFRpFAoN83k5AjyC20QFnsIOZVuKKoPZCL4LTJrfZFW7cUk0Z1JogsSyxwRxEQxOPEkQpLOwIe9P6LAFOF5xgjNNURIjj48Ir6Df8QeBEf9gIIiW4yPb53BBLwGMSq3GK+rOeF/FQPwK8Vw/OmIuTBYhY925iObF0c733s85GqN4r99aIZnjAqEy+M8Y1bCRLIQj6gE467TLnhU0R37LH2RWVEjNL1ulfT1DsDKzB3nzjnB1CoHZ864wcE5gwniKLKKxpBbNoH8yin2/ziOHzURRPHH/YZILxgWLsqdW8ZHP48hMXMQp05aQU3dF6oXbBAXnYKpqWnxt1AolMWQKFIolBty5coCWlpTEZVwEqmltihsikRpewLSS2wRlHBMkMQUJo5cEhPKHBDHXveM2IuwDDXEFVnD3vtNhOboMUHUQ3C2LgKztOGfoQGX4E8Qm6svNFuHxR1DU1PCpq8V6xoYwmnnMDypGY57ddJwl3Ya/qAcgftPOws1iM8yQXyBCSK/6PbL1pX4/bdu+NlBL0EU/363BZ7SSMNLbBq/g8vz7L1Ps888fN4LD6pH4zGDTLygEw5172j0bvLrAc7PzSMrPR96uh7wCqhCQHgrvAKbcOK4FVtP25BTOoHC6mnhWonlDQtMBkdw6ICpIIoHD9ohMKwM5Y2iaynyS+bkMKGMTGiBmponQmNa4O6TB3sbf3R30bU+KZRrQ6JIoVCuC+9LWFMXJgxSSatyR3Z9IPIaQlHYHImIlHOIzFRHSoUbEsuckVBqj9gSG0QXWcLJdycicg0QVWABB5/t8E+7wARRC/6ZGvBjAumbpgKvZAW4BHyIRCaWccU2CE48hdIKLyxc2ZyXfGnrG8SPDtF4wiAdjxnn42HDPDygn417lIPxmHKAUFO4KIiv2VRjm20N/vtjS/zD6WBBFH92wBN/+sFLeJ1fiJsLI5fKp43z8IiCC541yRcE8kWTHOyxDEN7/+bcB/I7sKSn5sPVPQ1JWYNIyBxCdHIffILqcFbBVqhFLK6ZFUSwsll0B5bkrE58/52oRlFFPQFKSo6oaJwXpvNb/fH382srOrqkwdktA0XVs0jPH4CdPSvH1k7xN1MoFBJFCoVyNbx2r7I6AGEpikgsdRSEMK3KC5k1/siuDYRXyOeIL7ZikugkDFaJLbZmkmiBsFx92Hu9gfA8IwRn68El9Eu4RX4Hv3Q1+KQpw5tJp1fKeXgyHNg8fGMOIrrQEhH5JvCNP4aKKj8mqJtLFjv7B7HfPhIvmBXgecsyPGtegqfMigRhfEDRB3/Wjhfduo8J4OtMBN+yr8M2i3L8YreVIImL/Bd7vs2iAm/Y1Qoy+TKXRTa/JzUi8JxWlHAfaM4btpX41iYCnQPD4l+wOcLXycT4TPgH56OoZka480pO6bjQ1OzklgNLmxhB+pbe5zk4ohwHD9gJosg5dNASydndV6fz95fUziGr6BJ09XyQXTwsvF5aPwMHxwh0dVLNIoXCQ6JIoVCupq0tA77RBxFVYM4k0AbxpfZIKndGSqUHYnIN4cPkb1ESY4qsxYNVTBDABNDR710EZmrCN00VngmnYOXxKhNERXgmn4NHkgLcE0/DLfEUXJgYWnu8hpAsLQRl6SAgQwPuoV+hp6dY/Cs2fnifxDMu4XjNoki4V7NQI2hdhb9Yie7X/MhpByaQhUIt4ev2tXjboR47nBrxqkEB/vkz6+tE8efs+YvaWcL9n7kQ8tv7vWRdieeZdD55zhXvsdc/cG1ltOAd2wqoeEZjcnpG/Es2firLa+HmkSTcho+LHP+/rGEeBZVT0DcIQFRi8w2SyLGwjsLpMwFXRfHESW84uiRf955KXrNYOwvvgEK4eKRdfT2//BIc7f3pMjoUCguJIoVCETI23gevkC8QzOQtjEkhH63Ma/1ii22RUOoIn4jvEJ6pIcgjr0mMKjRHRIEJwvIM4BV7CA6Bu4SaQ/eks0wIT8Pc7WW4xByEW9JpuCachHP8cTgxSXSMPQJL33fhEvaNuDn6vCCRgWz+MzOXxb9mY8cjPgNvW+Rhp1OTwA7HRrzFZPA1uxo8Z5yFJ857Cs3NvCaRSyJ/zwcuLXhRPR0/+9L2elH80QMPHArAu87N2M6kkNcs8lpI3uT8lHo43jHNwBfePfjMqxsfu7fjDaNUxOSXiX/Jxs6lS5dhYeGLktqp6wSPk1d+Geoariipm71hGufsWRuoqCdeFUV17VQcP2qG0vrr38+bq7OKR6Gm5sQEdJaJ6ILwemhUhXDZHQplq4dEkUKhCP0Sk1OU4cWEzS9dHQGZWkITcmiuESLzzRDFcA34ELFFVmJJFNUkhubpIzhHBy6hXwhNylwIHZgIWkcdhLHn27Bh8ugslkO76EOwjT4I68gfYR66B6YuLwiCyAXSXiyP7e2Z4l+0cTM0ehlvafkJtXwfu3dgl0cHPmIC9y6v8WPC+Kx6CJ7TSxKakXlzM69J5JK4i73n6TPR+Pn3LteJ4j+cCRGan991aBBkkYslF0wums+Z5OH5C974PnAIe/0HBVl8z6keB6wDMTu38a9b6eMRjJScn5qLr8XdOxO+QUUSaxOLa6Zw9Iiof+K1HDnigJCoyuvey2soS+vn4OqVBVuXUKSXtKK8iTdlLwiSOji4uZryKZSVhkSRQqFgeLgRjv7vwz1JQehHyPsV+mWoC6OV+aVt3MP3IJi9zkc38z6JvLaRX/YmOEcXAVmasPV5B3Zh38Am+gBMw36AXtBeaPnsgoHTc7CNYXIYdQAWEfthFr4PJmHfwyj0W+i5vgKroE9hycTRmL2m7/8JohLOsF+zcUdB88vUWIXG4z37Knzq2Y0vfXrxtW8fPvfuEYRxh2MtnjznhpcsS4Um6XeY9L3r0oyP3NrwiWcn7t3njZ8d8r5eFBn/+KUdXtXOFuRzOxNL3gT9KhNNXqv4tGoQvnSqxA+Bw/iCfd8Hrm3YYRSNkvpm8a/amOG1iYYGnuIBKAsob+S1ffOC3JXUTkNb2wN5ZZevk75FUrK7ceiQxQ2ieE4xHDp6fje8n9cqpuT04/RZPYSkpqCw9qLwelRiHcLZ8qRQtnJIFCmULR5em5iYqgrb8G/hFHcMrgmnBGH0SlFkwqgK74ST8Aj9ErFFfOCKpXB9RN40LbrsjSYTSlWYubwAi7BvYRjyLTQDvsIF709x1mMXVG0eh1nwl4Ic8mn6wXuhG/QNtAO+hpbX+9BzegF6wXug7v8llH0/g4XnTiYIHeJftvHSNTCMDwyC8YlHJ75hgvhdwBB+CBrGXv8BfObVhRfVg/GsQZrQN5HL3nbHRqFvIZfIz9n0//nEGj8/GXSDKPLm54cPBwlCudO5SdSMbVsjDIZ5Rj8Nb+tF4Vs/9h3e3XifyeQ28zxYhSeJf9XGCxduX88QpOZ0C5KYVz2A5MJaZJV1CsJoaR2B8Lh6QfCWSh8nNLpKuCTOUlHU1MnAgf3GyK+4XjB5rWRh1TQuKNsjMrUYZY0zwuulddMwMnQT7v5CoWzVkChSKFs8A4PVsPLZCdPwfULtnl3MYbEwnoYb+9/Z/wOhyTmm2BqRBeYIyzMSahkDM7WEy954JZ2BkeMzMGAiqO73Bc567sJx1/dx0Gknjlo+DV33N6AXtAdaTA41/L+CGnuPis/nUPb8CGpWD+OCz2dQ8PgYJ9w+gILdS6ivjxT/so2VhStXYB2ejJ02JfjMswvf+g/ix+BRHAgdZcI4iHdM0vCkRiT+Ylkm9DHkosibnT9kYsfFcpdT8w0jnq9yKhj/ucsSH7q0XG1+5gNk+OVy+CVynjnvxkST91HswA4mkq/ZVOITAy/Mb9ALcQ8x4TYx9hZkraxxGgn5lfBLiEJkRg5cPJPg7JGJAiZ2kpqdOS4eqTh+3PMGUeScPOV93cAVDm9+5iOn3bxz4eZ1/TRPnwwU5peKfxmFsvVCokihbOlcQVKGFjS83odW4DfQZ7JnEv4DrCIPwCHmCKw8Xxfu18yvlcj7JYbnm4gkMUtHaJrmTdQuUd9Dz+UloVaQS+IR5/fwvd3b+Mp6G742ew5KVo8yQfwSKr6fMyn8FIpen+Acex+XQ0WLh3DaZbsglT/Yv419Vi8iJllZ/Ns2VviFtXcbBeN9l1Z86tmJPX4D2Bc4gv3BF/GFWxMeP+cu3IGFNxdLEsV3jEvwL1/YSRZFxj99aY9XtLNvEMXnzEvwmIIzdtpVCYNi3nCoE0ZFb9MORH17l/jXbazw5t6oxHpB1Hh/wbSSZoSnZyAgNg1KFxyQWXRZuGj2zURRR9cHZxXDJIqisno8FBRsr3v/oiim5AxCTc1ZqMVcfD05qxeOtt7iX0ahbL2QKFIoWzgXL7bC1GO7IHhKTOJU/b6ANhNGw9DvYBr4KdyCPxVGOccUWyGywAxheeJ+ifwyOOkqwuVv7IJ2QdPlVZz32o2jLlwS38RnFq/gA5MX8IHBEzhjdr8giOc8d+MMk8NTbh/ihOsHOMbee8L2Lzhm8Ti+sXmdfeZl7DZ9HkYur4t/3caKZ1IOXjNKE0SOD0zhI5G/8e0Xmp1fVQ/EYzrJV0VxselZGMjCRHE3E8WXVVPx869uLor/uMcRf1FLvSqKvOn5qihqRON5jTBss2OvMUl8xrwUT2hGIzwzX/zrNk5Ghi/CzMTzGpG7ItQq8n6DhsY+sHfJEETxVjWKR4+YQlktXqIo8otvnz5tfd37+XyKmHimF4zi3DkblNbNiOSxdgbJTB5VlKzEv45C2XohUaRQtnBq68Jx0uYFHHZ+F8fcPhBEjjcFa/h/DX231xGQcEK4PE5UEa9NNEZILq9NFDU580vheKachUvcERi5voxz9i9gv/07+MLyVbxn9Bze1n0MBw3vxXn3d4Xaw5NMDrlIHnbaiYOO2/Eje++Pdm/gmOEfscvsRewwfBZv6j0JRcs/Y2pqY92Ojl83cb+lH161Lhck7j2xLPIBKrtcm/DUWRc8YZSHp02L8QITRT5imV/mhl/u5j2XFuGyNh87t+DhQ4H4p6/shabmayXxn35ww+OnIoXR0TucmoTR0nwwC++j+KxZCZ4wzMGjp+3xPJNG/h2PGeXjQa0EWIfGiX/hxklZSRWc3VKuEzkOl7cTxw0Rm9qHjILLyK+YQlmD5D6KkXF17L02UFKOvk4SlVXjoKLicWMfxcYFoY9iZuEYVNXcEJfWzt4zycTxEns8gFMnLTA+TtdUpGzNkChSKFs44Qnn8L3lX/Ct7ZvYx8TtsPNOnHL/EIren0Df4RlEMTmMKRLVJoby2sRsXeGWfL5pysLoaPekM8LlbeyiD8DQeztOmT+KT0yYJDLh+1b3Tzjn/BbOuH+E40wSuSAecNwhfM93dm9hr80b2GO9Dcf0f493DZ/GazqP43n1B3HK7Al2UN5Yd8Vo6enDDj1/Qdx4kzCXRd4M/D4Tu7ctC/GQgiuTtzw8ZVIk3LaP1wRefZ9zk9D8vNujA5+4d+B1vTz86itH/PyAp0gU2f/3HwrA+2x+XCr5hbe5ZPILePM7tHAxfJzN+/5j5njMIBsPG+TiPiZFd6vHwiQwSvwLN068PcIQldgk1OhdK3NZRUP4Ye8FQdz4XVlyyyaF+zYv3rJvKZmFQ9DU8sHJUz6CJF5QjYW6ug9ySkQjmq+lrH5eEM+0/Etwcs+Bjq4fEvltApP6EBTZgdOnrDE4QMcXytYMiSKFskUzPz8LA6fXsMv0BXxq9jK+snwN3zFhPMRk7pTLdhg5PC1cDuf6vonawm35eG0iv9uKa+JJ4RqJ/PI3/LI4uj4fMtF7EHt178JZx9dwmkkib2I+5MQF8W1BSL+xfl34rs8tXsVn5i/jiN7vsFPnYTyv9iCeUPoTlK2fx9zclPhXbowkF5fjSfUwPGNWghfFfRC5zL1pX4+/aEfj/vO+eIQJ3BPGBcJ7uODx5mf+Hi5+vDmZy+IuJoq8FvJ99rkHmRzy2sX//d4T79rVCZLIm6p5kzW/OwuX0ufMS5l8FgoSev9xS9ynFo0/aafjD5op+N8LIfBJzBD/wo2Rqalp6Go5IKNgFEVLbsuXmN6GvV8pITq5H8nZI8gqHhNqAW828plTUjcNW4dEHD1qDzU1b2SXjNzwHn69RH5rwJyScaTkXER4XDu+26MC/7AW+Ia0wtW7FkcPG2F6E93thkJZSUgUKZQtmsuXe3CBSdnbek9jp+Gz+NjkL/iCydv3tm/hmN0rsHB7Sbi4tqhvohGCskV9E/kAFn7fZn73FVFt4iHhGomGId9BJ/AbqHrvgqLzG1clkTcz77N/C3u5IFq9xuTwFew2fQkfse/70PgF7De4FycM7sI21T/iI827kVPsKv6FGyeeiZl4RCOaCVuBUMP3nHkZE8YKob/gk+c9cO+FYDykny00Cf/ZtEgQPF6ryJuP32DiJ5LFJrzv2oIP3VrxsVubwMtaWdhuU8MksVm4fiK/LA6vieRN1y9YlDHpLBbkk0voQ+fc8OeTJrhLMRC/Px+AT0x8MDh6SfwLN0YG+gahq+2KxKxhZBSNIb9yGqV1c0wG5xGV0ID9P2ghIqEH8RmDQu2fUKtYy2sVJfdVXIR/lt/JRdI0frFt3sycUXhZqEWMSurFrvcO4IKyO4xMk6Gq6o+QwI3XhE+hSCskihTKFs3QUD2OmT2FlzQexes6T2C7/tNMFl8QZO6w5bNw8HtXaHYWXVzbQFSbmKEuqk1MPivchUWoTYxcvMj2HmF0M7+GIu+TyJubeU3iD3ZvYY/N64KEfmIuEsT3jZ4X5HS7wdP4TPd+ZGQborjEGU3NibhyZeNd0sUqPBH3qUXhASaDjxrlCfLGhZAPXnnohDXuVo3C/XpZQrMwnyb0VWSix2WR1w7ymkXeDM1lkDdF8xrGRXifxMX7PPM7srzCJJEPiOF9E3lt4qOGeXiQfe+9F4LgGpOMiMx8hKTnMEnceLdDbGlqg5aWJyLimQymDSE1d1SoOcwpnUBAaAVOnLBCaEwXYlL6hFrFTCaTBUwm+b2fJUngreByyQW0sHoa2SVjSMm9iNjUfoTHdUFZyRppyVkI8gtHbnYRWyc37kXgKZS1hkSRQtmiGRvrxSmzJ/Fn5fvwgvpD2Kb9OJO3ZwSZ+9HsCbiHfiW6wDZvds7VR4C42dkrVVFodnZJOAH7mMOwiPgRRqHfC6Ol+ajpc167cdLtQ2GAzD6Hd5gkvoEvLV/FbrMX8YGxSBDf1v8z3tB9EtuYoL6j9SASUzXEv2pjxjsxE39SChGafe/VzRKEkUvhI0zi7j1qhrvU4tjrGYLQcZF8kgneM+YleN6SySITP95UzSWQyyCvNeTSuAgfuMJFkgvlVUm0KBVE9HHjfPY9OYKE3q0aA7PgGPEv2piprW6Amqqn0OQbEt0p1O7FpfUjIWMQbl4FOHXSFoER7aJaxfRBpOZdZJI3jiIme+VMFm9Xs3gtXBL553LLxpGeP4qEzEFEJfYiOKoD587aobenX/yrKJStHRJFCmXL5goMXd7BY+f/gCcv3IMXNR7GW3p/xi7jZ6Fo+SR8I78T9U/MM0Zwjh78xZfEEQ1i4c3Ox2AbfUi4LR+//iK/mDYfMc1HTh9zeR8/Ou4Q+iR+afkadjP55JK4w+BpvMkE8TUmpS9rPoK/qD+MF9UeRETMUfFv2pjJr2nAfec98Fu1RKF/4B+1UnG3ThoeUgnGNiVL/FElEndppzFZzMRDTOwWZZHXOD5vUSbIH29O5sK4jQnhtbzGXuOCyPsk8lpIoSZxURINc0WSqJOO/9VIhpprgPgXbcx0dXTjgqIDnD1r4enfCL/QFgRFtrHHVVC+4IizZ2zhE9zCJLJDkDoukGl5o8gpEfVXLK2fFQTwZsLIB77wPo28uZm/P6dUJInCwJXkXoTGdArfefq0PTo26DUoKRRph0SRQtnCqW2Ixff6D+FV5T9gu8bd+N7gIfiE/4ie3jJUVgcgKOEkwnINhP6J/hkaQv9Ej+RzcEs8Bce4o7CKOgATPoglaA/U/L7Eee9PhFHTQm2i/TvCwBXeJ5E3N/OaxDd1n8KrWo8JUvqs2gN4WuU+vKd+F6rqwsS/aGNmcnoGCq5h+IOCF357PhB3nfXER/qeCMooRGtvPw47huEu1WjczWTxft0sQRb5AJRFWXyW1y6KhZE3R78shj8WBNGyTOjXyPsk8uZmLomPMEl8QC8b9zBJvIuJ6V2KAQjJ2HjXTbw2c3NzsDR1h9IFP+gZJEBLJxyqKm6wNPNAY30LYqPSoG8UCf+wVqEJOjq5D4kZQ0LNIm+GziufFASwuHZWGMnMpZGLIYc/5/0ZC6tm2PumkMXen8Y+xyUxhs0nLK4LAeFtcPOtgYaaPUY3WP9OCkVWIVGkULZweH/Ant5ypOdZIavADl3dhexgLbqv7cLCLOoaouAXtQ/+TBBFd2K5cLV/okPsEeGWf7zZWRjE4vu50OzML6Z90HGHcAkc3t9xt9lLeM/oeaG5mdck/oVJ4jOq9+PPynfjI637EJdhKHzXRs/FsXFE5BTDLjIFKUXlGLr0Ux/BgYuXcN4tAvdcCMbdTOru4zWL+tlC0zSXPkEYTYsEEeQX0L4WXoPI+zRyQeT9G3mfRN7c/IBeliCJf9RKwb3KwdAJiMP0zMYvx/GxCWSk5cHLPRRJcelobGjB3OycMG1ubh6x0WnQ1QuCp38tQmJEzdPx6QNCn0VeO8gFkPdp5NLIL3nDL8zN+zHyx3zwC5/Or4/I38+br/klcEJjuSS2wtGtGFoabmhpbhe+j0KhkChSKJRbhHfi7+srQ1jMYXhEfg+PhFPCtRN/6p8oGu2sFfg1lPk9mz13iZqdHbZjr+2bwiVw+GhqXpvI+yTy5uYX1e/Hdo17oGL7Eqpqw9h3zIu/bfNkZubGS6lMz87CMzELr6m74z7VSNynnYoH9PkAlxwmf7nCtRCfZNL4FJNBLoUC7PGTjCfY648xQXyEvZf3c7xPLxN3s8/zQTIvqbnBMSZdmP9WSXFBObQ1nGBqEQ/foDqEx3cjJoX3ZRxCEhNAPggmPf8SE8LLwmhmDn/Mr7/IBTGB1yKy90cm9CA4qh2u3uXQ0Q2EqZErujs31jU8KRRZh0SRQqHcNgsL82hojEFk3DHY+7wDu5DPYBf1I8zDf4BByLfQDPj6av9EfveV/cIglteZKL6Mj0xewLsGf8YHOg/ge90/wcRtB0rKPJlMbbxRucvN9LSoVlZSeocvwjU2FTs1nfGoojvu14jFA7oZeIiPitbPES51w8WRwx9zOXyYyeGDTA4f0E3HvRoJeFDRGy8o2sIyNB7dg8PiOW+tTE1NITkhA3ra9lA87whr+wyExrQL8sclMC5tUOjDyJuWuUDy2kM+qjkqsQdhcZ3wD22EiVkcTp8wh7mxK0qKKmh0M4UiISSKFAplRZmYGEB1TTASkxThE/wlLN22QdvuKahYPQxFiwdw1vQ+nDa5F8qWj0PH4SW4BnyJ+MSzKCpxwaVLHVviYMxrFG/3d87PL6CuvRMu0Yk4Y++HD3Vc8cx5e9x/whr3HbcRY43Hz9jhxQsO+MzAHYrO/rANi0FBTYNw20CKuNa7tx/REYkwM7SHhqo1zp+1wplTljh1gnHyJ86esYSyoiX0tGxgY+GC9JRsTE5urIu7UyjyDokihUJZVXj/Rt6fcWZmDNPTl4T7M//EKKZnLmN2doIJ0e2labNlOaJ4bbj0TbHPjDNpuTQ2jqGLo7g8MSEwxl6bmJoWmpa5XFJunoWFBcxMz2ByYhJjrBwvXxq7ytjlMUyMT7B1c1ro87jV1kkKZbUhUaRQKBQpZ5ZJHZeW1YR/jo/+pVAolPUQEkUKhUKRcrjscVlcTbgkzlOzMoVCWSchUaRQKBQZZKXNzzz8/bcaCEOhUCjyDokihUKhyCCraX5eS00khUKhyCIkihQKhSKD8ObjlfY1pGZnCoWy3kKiSKFQKDLKSpqf+fskXaibQqFQ7mRIFCkUCkVGWUmtItUmUiiU9RgSRQqFQpFheJ/D29Uq8unUN5FCoazHkChSKBSKDMMHqNyuSXk1I6QpFApFHiFRpFAoFBlnsf/hUhm82esUCoWyXkKiSKFQKHLIohRey3KapSkUCuVOhkSRQqFQ5BguhotQKBTKeg+JIoVCoVAoFApFYkgUKRQKhUKhUCgSQ6JIoVAoFAqFQpEYEkUKhUKhUCgUisSQKFIoFAqFQqFQJIZEcYX57rvv8G//9m+EDLn73vvQPLFAEARBEFue8bk7e4UEEsUVZvv27firv/orQob87B/+EUUX5wmCIAhiyzMyS6IoFeQlinv37oWhoSEhQ17Z9rrEjYUgCIIgthokilKCahQ3D1SjSBAEQRAiSBSlBIni5oFEkSAIgiBEkChKCRLFzQOJIkEQBEGIIFGUEvISxS+++AJ79uwhZMijTzwpcWMhCIIgiDtN/tAMXOIzcd7AFGcuqODEmbM4fur0sjitqISzaprQtHNFXG2nxPkvhURRSshLFD/88EM88MADhAz51W9+K3FjIQiCIIg7SUrLALQs7RAQHIKOjg6Mj49jfn5ebAi3z9TUFC5evIjy8goYmFvCKSoJhSNzEr9rERJFKUFNz5sHanomCIIg1htZPZehbW6NpqYmsRGsLTMzM4iIjoVjZKLE71uERFFKkChuHkgUCYIgiHXFyBzUrRxRXVMrtgHphMuipa09IsqbJH8vg0RRSshTFP/6r/+akCE//8d/krixEARBEMSdIKPzItQ0NFfUzLzc9Pf345SWAQpHZiV+N4milJCXKPILbuvp6REy5KVXX5O4sUgif3gGHsW1UPMLw0l9MxxR0yHuIEfVdKFh7QyflFyktQ1KXGbrhey+cfhll0HfzR8ntAwl/j2EfLlgbg+nmDSkd4xIXGbrhczuS/BIyYOGravEv4OQL8c09KHt6AHfrFIUDM1IXGZrxdgrCFnZ2WITkG5mZ2dxTlkVOf0TEr+bRFFKUNPz5mG5Tc8eeRU4pGsAPTNzxCYkorWtDYODg8QdhG/sVVVV8PXzh5auPoxdfZDZOSpx+d0pCtjJhUNUMi5o6cLZ1Q25eXno6emR+PcQ8qWurh4hYWFQ09GHZWCUxOV3J8kbmIRlQCRUtPXg4+eHiooKiX8HIV/6+vpQUloKF3d3KGrpIbigSuLyWwvH2Ekw37/JIleuXIGyiorQB1LSd5MoSgkSxc3DckTRnUmimqU1Ojo7xUuGst4yNzeH/IIC6Ns4CAdYSctR3vDRhVZBUQgIChZGK1LWZ/jI0Dh28mfiFXTbEaHygv8OA2dPJCQmYWJyUvxLKestw8PDsLB3ZLJYLXE5rpavj57GwsKC+FukHxUuit0kihInSgsSxc3D7UQxu38Sx/WM0N3bK14qlPWcVLaDsfILk7gs5U1keTNM2AmGLHf4FOmE17IYmpkjuqpV4rKUN47RKQiPiqZ1ZwNkYHAQakZmyOoZk7gsV8NXR06K5y6bkChusj6KhoaGhAx5ZdvrEjeWRWzTC2Du5CxeIpT1Hn7NMCV1TYnLUt4YufkhLy9P/Mso6z2lpaXQdfSQuCzlCe/3dlJJFZNUk7hh4uzuAd/MEonLczWQKJIoLjtUoyh7blejqOHqi8ycHPESoaz38FGCpxQUJC5LeXNSVUvYX1A2RngT9H4FRYnLUp7wQQaKSheoNnEDJSkpGRZS7OdKokiiuOyQKMqe24mikpkd6uvrxUuEshFy4tQpictS3vxw7JT4F1E2SvYcPSlxWcqTnL4JKCkpiX8RZSOEO4GxT6jE5bkaSBRJFJcdEkXZQ6K4+UKiSFltSBQpqwmJovRCorjC7N69G2+++SYhQ+6+736JG8siJIobLySKlNWGRJGympAoSi8kiisMF8Vt27YRMuRP99wrcWNZhERx44VEkbLakChSVhMSRemFRHGFoaZn2bMxm56vYGr8ElsXhxmjmLuy8g17fnYKk9Oz4mcrz8zUJOYW7uwO5WYhUbxV5nFZWG+GcenyBFuTVpormJkcw+wq7izG17mLF4dxcXSUfX59rjskijfP/OwkLorXnYlV7TsWMDE+jtXsNuamx4XvHZuYFr+yvkKiKL2QKK4wJIqyZyOKYn9DGhwcHREa5g93S114J+dheoUDJC/3N6C2uU/8bIW5chEOSqoo7b8kfmF9hUTxJlmYQUGKE1zd/YV1x9pIC1lNK70+6Bw6KnPQMyZ+uuxMI9peFaZOTrAzVYBZmGxuT7bWkCjeJOM98PO2hl+AP4L83WFiZoq+FTvbOCqLSjA5J366zMyPDyLUxRxeob6wsrJGx5j073+81pAoSi8kiisMiaLs2XiiOIdoL11kNw2Ln08jPTUBo2zvuzA9iuyUEIQwCWgemmHTJlCfn4P4hHCER4ehX3xzkPbqPJRWFaOmWSQJM0P1CGE74eCEZFycmGU+MY68tBAEs9caBqaE9yxmdrAeWrpKUDyhgGISxVuy3kRxdqIPGkb6WKyAHh9qQkp+ufB4ZqiRyaMfIlPScZmddUyN9aIiN11YBxJzizDDj80zYyguyEZFcfZVUWytSBHeE5tfJTyfGWlGeLgfIpJScHHymgP6TD9S0zLBVi/MX+6Gpa4uOlZfoS2zkChKTndJEKwiFuV+Ad1VaShuvyg8a69KFdaBtLIG4XlffTnyc5OE10oWT0YvdyCjpAQlBcWCKC6wdSk3VbSPqegcFd7SVZspPE8qrhWeL+ZSXw0yC+vYoyuojTOHY+r66wpEoii9kCiuMHTBbdlzuwturz9RvIKO0iiom1gghQliVUu/uPlwBhn+5ghIL8dITwWMjG0wMNUDW9ULyKptRWagMfxyWtn7JuFsrIr4ODf4RBVidrIX1rpqqO0bQUNZMnKrmpEXagXvpGKM9tfAzMQK3WNcOkW5Mj+NS+OTiLI3I1G8DetNFK/MTyE11BRmLn5s3clE35joJGBuqh82bB2o7hlGTbYfHILS0deVDeULZugf7YW5ripaLk7iYns+jK3sEOOkhrxuoL8yBpaugege7kNuUgSaB/rhoKeMsvZ+NOSHwNY3ka2VN2a4KRvq2qa4eGePRxJDoig58xdbYGGth4CwCGTmlGPx9HGgJh6WLv7oHuhGgq8FYsp6UBRsAJvQHLRUJMDQwZ+dyi6gId4cTknpcDC2wODkDHJDrOCTzPYxo62IikxCV3UyLB090TnQi5QAc4QXdYm/QZz5GdSWpkJf+wLqh9df8zOJovRCorjCUI2i7NmQfRSvzGO4vxMtzRXwtjeCnZMH+vsbYaStjNicfJSU5MNB9zBSmprhYWaMjktXcLm3BGYOfphmAqBn44OqgkBBFMe6sqBrFfBTX7XxLiYGSojKYvMpLYCr4XHEVQ+KJ/4UEsXbsy77KC5MobOtGWXZMbC3MURgfA5GmhJwSssMRSUFKMmNgo6ONsrrsmDtGC58pCzGhh2421Ae7wCPpHykOotEMS/IkL3+0/3PZzvTcELNCAXFbD55sdDTVkfLklXkUnsxTK2NkVXHZrAOQ6J480yNDaG9rQEpIS6wMNNDXusIUry0YBMULewrMqLsoOUYxkRRD3GVI7gydxEhjkao7B6Bi4Eiaka74MRFcbQfnuY6qB3+qb9MdqAhzH3DhfnkxDtDzSYA13VjZfu8of4OFCe6wSWqAHPr7CSDRFF6IVFcYUgUZc+GE0W2840P9UY7+22LCbdRRVpZIYx1VRCfV4hS9pgzNN4DL3MTdF5m+9mZy3AxM0BUkAUiS7rQVhokEsXuG0XRQo8JZ+5P8xm4fGO9EIni7Vlvojg1XAvP4Piry3pupAmmBiZoqE2Agq4liktFy7uqrg7dbVmwc4kS3jfTWwhLRze42hijdmD0J1EMZqJYeK0opuO0pikKS0TzqaytEZqaFzPYmAlLO1PkNw2IX1l/IVGUnIbcQKRW/ST3l2vCoekcj0Qmig6h8Vf3FQ2dvYIoJlaLmpPrM7zhGhwAUytPzKHnFqJoBOuAqKvzqW/vubqezkyMYGhU3G9mqBhapm4YW2fdFkgUpRcSxRWGRFH2bLwaxXkUxtjByDUM/ReHMdJeDmNLa7RdvITsIEuEZFWydXQQsQFOaLvUdVUUeb+i+jgzfHVKBz3jM2gXi6LQ9KynhpreYbTWZCO1pAoF4TbwSyvDCJt/QpATmoZvvOcsieLtWW+iOD89AkeLC4jJqsIwW7Z1OUEw94rF+FQ/nI21UNU9hO7GIkTFJaD9GlFkigk/ve+gZBeFGfZ4URQHqmJh6RqArsEBFGdGo6qzE24mGiht70dPcxmioqMxKj6gX5nohKHmKaRXtgnr1cXRS9fXGK2TkChKzlhbttDdpby5AyODPUj0N0ZwXgf6a+Jh7xnM1oFh1OSEI7Gk4TpRvNxbDs1TX4m7vYhFcXIWeSFW8E4uYutCDyJjYtBZlQQHN190sPnU50chrqDual/aoeZsWLt4C/u7pixv+KU3sr3g+gqJovRCorjCUB9F2bPx+ijyzKK+IAkhYX6MCPSOi4YRLkxfQk5qqDCYpaC6i1+MAjXFRVisELxyuQPJBWWYYyfyl/rrUXt1MEuDMJAhJDEFo+LBLPlpfD5+yK1ol7hTbi4vRt+EpB5odz4kirfKJaSx9YMv24T0fEyIFy4fzBIWzl+PQsfFcUyNdaGsslk0kaW7LgcV7Xyfx0c9/zSYpa0yVZhXXEG18Hx2pAUREXw+kWgZFM5QhMyO8L5oAcJ7OZGxibhIg1kksl6bnkd7axEjLL9A5Nd2iF/lg1nShGUaHZfN9jhAX0M+2obE/QhnJ1CSn4x+PgHjqCgUjXrmg1nyxPuYik7RCWdXXZbwPCI6nb3z+vTWZQrTUoqqVnV5HVmHRFF6IVFcYahGUfZsyD6KlFuGRJGy2pAoUlYTEkXphURxhSFRlD0kipsvJIqU1YZEkbKakChKLySKKwyJouwhUdx8IVGkrDYkipTVhERReiFRXGE+/PBDPPzww4QM+fVvfydxY1mERHHjhUSRstqQKFJWExJF6YVEcYX5/PPP8dVXXxEy5JHHHpe4sSxCorjxQqJIWW1IFCmrCYmi9EKiuMJQ07PsoabnzRcSRcpqQ6JIWU1IFKUXEsUVhkRR9txOFC+Y26O29vp7j1LWd9aLKO47fhpXFi8GR9kQIVGkrCYkitILieIKQ6Ioe24nijoBEYiMjxcvEcp6z/T0NBTOK0pclvJGycAMHR0/XW+Osr4zODiIE2o6EpelPMntn8S5C8qYmxNdH5Wy/hMVFQ27iESJy3M1kCiSKC47dMFt2XO7C277lDVC3cQUCws/3W6Ksn7T19cHZR19ictS3tiGxiEujk4yNkoSk5JgFRQtcVnKk4LhWZzR1BPElbL+w1sNTK1tEF7aIHF5rgYSRRLFZYdqFGXP7WoU8/lO29oRRaVl4qVCWa/hNTAePn7wzyiSuCzlTUrLINQMTTA+vvQ+E5T1lqmpKaiwE4y0tmGJy1LeRJY3wcreCZOTN94+k7K+UllVBT0HN+QPzUhclquBRJFEcdkhUZQ9txNFTlzLAA7qGCA+OUU46M/Pr7c7jW7t8Obm4eFhODi7wiYgXOIyvFOEFFRDSV0Tra2tgoxspprpK6zcr8xu7ObR2dlZ9PT0wMDUHAG55RKX4Z3CNSFT+F28+wJfxzdjf9cFtk1c2YD7U74s+PZcXFIKdSNzpLQOSlyGq+V6UWTfNX4Zo6MXr+ESZueXsS9ZmMWshLeRKJIoyoi/xi9+9Wvc/8Afr+H3+PW//yd+8+t/FN7zj//+z/ibv/6/+O/f/Cd+9v8kzWP9sRxR5GT1T0LTOxifnjmLwwoKOHPmDLFOOKuohLMa2ggtqJK47O406Z0XoWRkgdOKF3BmE6078Tvfh+tX30icthFQ4MvivCLO6hohvq5L4rK70/Dfdd7ADKfPK22qdYdz/tQpZLz1Diy+/0Hi9HUNWxZ8e9Zx8BT6lEpadmvhelGcRlVWHIKDPaF1Zh9sfH0RHBKFzlHhBtq3yALaMlyR3nbjyRyJ4iYSRX6dv5MnT64bTrENm7P/+89x8Nixq89PneLTj2Lv15/g+Mnj+OGbXThy4sbPr0eefu55iRvLzSgcmRMzu/FhB6HiP7+AwtgMydM3DHNs2XAkL7P1wqZadxjFOz9GkaGVxGkbh/W/3nA227oj0HUJJU+/iKKAKMnT1zWi5SFpWUkDiU3PC1OIsNJB1SXxc5bBlkKEhvsjLq8cXO+ay/PQcXECU5e7kJufB2+d72EUmI6JmetrbUkUN5Eovvfee/jlL3+57nj4+Wfw2H2/ER7/4U+P4p03H8XdDz2OHe++iD8/9hCeffEJ3HPXr/HUKy9h+1svYPvO1/Dw/X+4YT7rgf/4z/+SuLFsCeq7UcJEsSguU/J0grgFXBSLjawlTiOI28JEhYticeCdH0C03liOKF7qLIKVlS2a+/qRG2YB/6xW9FbFwzU0CbnR7kioaEWqsxKiK0ewsKTbAokiNT3LnN8+8gj+8Iv/Jzz++3/8H/z5iV+yx/+MZ56/C3/7f3+Gh566D//z6//Gc8/chb/5//4K//ff/xtPPvZ7/B17vHRed5rlNj1vSkgUiTVAokisCRLFm7IcUaxMsIe+sz/KyotQluUHZSNnjE9PIcZNCaqOIZhZmEOOlzrSWmZFH7gmJIokijJnOaL4mwfuwraXH8L9D/4R9z98D/785B/x87+VPL87CYkiiSKxOkgUiTVBonhTliuKhi7+KC7JF6hubsfszCXEe+hAz8oHg7MzJIo3YVOJ4rvvvotf/OIX644Hnn0aD//pl8LjX//uXrz4wt3s8e/x0ssP4n9++Ws8/ZfH8MAjD+Olp3+Pf/uPX+Df//Wf8bOf/wP+nT1eOq87Df99kjaWLQGJIrEGSBSJNbFZRbFvXPjb1sI3B46KLeCaLBHF0Y5C2Ds4o23oIjrKExGVVYbGgiD4xBWgMtkLgdm1yPfVREhRL+ap6fk6NpUofv3118LIvPXGwX1f4sjJk8LjU8d/xPc/7GWPD+CLr/fCxFAdB/fuxrHjh7F9xxswdrKHjfEJbH/9LRw9JXl+d5JnnmeiJGFj2RKQKBJrgESRWBNMVDadKA5MoeSHI8LftRb0f/07sQVckytzaCzOxeCM+DnLYHM+gkJ8GPG4xGSwpjgdfZenMDMxgKzCUox1lyMkJgkXp66vVSRRpKZnufN/Fv//P/9H9Pj/XDONv8ZYfL7eoKZnEkVidZAoEmtiM4ri8CyKk3LZ3xSzJo6895HYAmQTEkUSRWIFkCiSKBKrg0SRWBObURSlhMQ+ilIMiSKJIrECSBRJFInVQaJIrAkSxZtCokiiuOzs3bsXhoaGhAx5ZdvrEjeWLQGJIrEGSBSJNUGieFNIFEkUlx2qUZQ9VKNIokisDhJFYk2QKN4UEkUSxWWHRFH2kCiSKBKrg0SRWBMkijeFRJFEcdkhUZQ9JIokisTqIFEk1gSJ4k0hUSRRXHY+++wzQsY89OhjEjeWLQGJIrEGSBSJNUGieFNIFEkUl52PPvoIjz/+OCFDfvv7P0jcWLYEJIrEGiBRJNYEieJNIVEkUVx2qOlZ9lDTM4kisTpIFIk1QaJ4U0gUSRSXHRJF2UOiSKJIrA4SRWJNkCjeFBJFEsVlh0RR9pAokigSq4NEkVgTJIo3hUSRRHHZoQtuyx664DaJIrE6SBSJNUGieFNIFEkUlx2qUZQ9K6lRzO2fhEdKLgw9AqHt5L3xMbGB7h/vgfY5NcnTCeIW6Dz+NHS+3CtxGkHcFhsX6N51H3SOK0ievgEwcA+Aa3wmMrpGJR4zVguJIoniskOiKHuWK4oprYNQM7GAt58fcnJyUFRURBAEQWxhcnNzERAcDHUjM8RUt0s8dqwGEkUSxWWHRFH2LFcUjdz92E4hT7xkKBQKhUIRpbm5GarGlhKPHauBRJFEcdmhPoqyZ7l9FI8rqWJsbEy8ZCgUCoVCEWVubg7HTp+VeOxYDSSKJIrLDtUoyp7l1ijuP35KvFQoFAqFQrk+h0+cknjsWA0kiiSKyw6JouwhUaRQlmYaZUnBcHG1huqp76Fva80ee6Fh4JJ4+s1yBX1FQchonhQ/p1C2TkgUpRMSxRWGRFH2kChSKDfJlVnE2uujdHBW/AJwua8BGZkpyKtqwAI7nvS21KL30iRmp4ZRVVODcPOjsI3Iw8TMvPgTFMrWCImidEKiuMLs2rULL7/8MiFD/nj3PRI3lqWQKFK2XJaI4sRgPZysTZFfXYM4PzNEFLSjozQG7hFpqEz3Q1BmBRIdz8Enox4z8wvCZyiUrRISRemERHGF+eSTT4RaRUJ23Hv/AxI3lqWQKFK2XJaIYmOmJ4zcw9HZ2Y7O6nhomLjg8sQ4otzUoWLlhQkmhwUBOkiuo0FflK0XEkXphERxheEiI6m5lJAe1PRModwkS0SxNtkRKma2SEiMFsgurcTM3BSy/HSgbu6HiwvzJIqULRsSRemERHGFIVGUPSSKFMpNskQURzvyYWPrwg4kwOXOYiRkl6KrOgGuISmoTHJFcH6rIIpR5bLfN1Io6y0kitIJieIKQ6Ioe0gUKZSb5Mo8arKT0DW+ODDlCnpr0+DsagtnF3/0Tc+iPDsaLYNjmJnoQ3RyOkbb8+HmF4z+sWnxZyiUrRESRemERHGFoQtuy57lXnCbRJFCoVAoNwuJonRCorjCUI2i7KEaRQqFQqGsNSSK0gmJ4gpDoih7liuKB0+fw+ysqK8WhUKhUCiLuXLlCo6cPC3x2LEavj56SpinrEKiSKJIrIDliqKKkQVaW1vFS4ZCoVAoFFFGR0dxRlVD4rFjNRw4rwruMbKKIIo9JIoSJ0oLeYninj17oKWlRciQF195VeLGspTQolpo6OpjcHBQvHQoFAqFstXDJdHazh5uCVkSjx2rQcPWFRUVFeJvkG7m5+ehqKyCnN5xid9Noigl5CWKO3bswN/+7d8SMuQf//lfJG4sNzKH2Jp2HFPTwddHThEEQRAEDiqpIzCvAoUjcxKOG6sjorwJllbWYhOQbiYnJ3FUURX5Q9MSv5tEUUpQ0/PmYblNzwRBEAQhDwqGZ6CgpiXUVko7sfHxsAmNlfi9HBJFKUGiuHkgUSQIgiDWG7y7k42TC8bHx8VGsPZUVVdD19YZ+YOSaxM5JIpSQl6i+MEHH+Cee+4hZMgvf/VriRsLQRAEQdxJfDOLYWBhjcqqKly6dElsBivL3Nwcevv6EB4VBT17V2R2XZL4XYuQKEoJeYniF198ge+//56QIY89+ZTEjYUgCIIg7jQJDT3QsHHGGRV1nDh1esWcUjiHs9oGcIhMQt7glMTvuBYSRSlBTc+bB2p6JgiCIAgRJIpSgkRx80CiSBAEQRAiSBSlBIni5oFEkSAIgiBEkChKCXmJ4t69e2FoaEjIkFe2vS5xYyEIgiCIrQaJopSgGsXNA9UoEgRBEIQIEkUpQaK4eSBRJAiCIAgRJIpSgkRx87ARRDGzfxDxHdVSvUUUQRAEQSyFRFFKyEsUHRwccOjQIUKGnFFQwEW2YaxnMtuToZ++H0PTMxKnE9Kh8WIHPErN0Dk2JHH6emVoag7D0/MSp90O/jn+eUnTZEFsYwgSmiIkTiNkR2JzpFD2kqYR0qFvclzYf9QMNUqcvlGYWSBRlAryEkUKhae4KxlG6T9gfmFW/ApFFmkfqYFe6h4MTfSIX9kYWVhYwOzs6tYN/rn5+XnxM9nHv8wIwRXm4mcUeSWk0gJ+ZYbiZxRZZHxmVNh/1A8UiV+hrCYkihTKKkKiKJ9sVFHkmZ6eFj9aWVb7udWGRPHOhERR9iFRlE5IFCmUVYREUT7ZyKI4MzMj1CyuJGupiVxtSBTvTEgUZR8SRemERJFCWUVIFOWTjSyKvPmY3/x/JeHvl2ezMw+J4p0JiaLsQ6IonZAoUiirCImifLKRRZGH1ypeubK8juj8ffz98g6J4p0JiaLsQ6IonZAoUiirCImifLLRRXEltYp3ojaRh0TxzoREUfYhUZROSBQplFWERFE+2eiiyMP7HN6uryKvTZR338TFNA2VoXm4UvyMIq+QKMo+swszKO1OxejUgPgVympCorjCeCWZQ9n3G0KGqPscRPfUwromrT0TJtkK6JiYkTidkA5FfdXQSP4G1SNdEqdvBLom59E5MSdx2iId43PC+yRNIzYnfpUu8Cq3lTiNIK5lcp6uoygV5CWKZiGKKOiPJGREPkPFb7/Eq9OvJ3KHLiOtt4s9pjuzyJK03m44l7she2BY4nSC2Khk9Q8is39A4jSCuBa6M4uUkJco6gQcgkHpJ4QM2efyqsSNhSAIgiC2GiSKUoJEcfNAokgQBEEQIkgUpQSJ4uaBRJEgCIIgRJAoSglpiSIffchHKPLLVEjCMOgUQluMGMabDP43MZpvgZz+7tNen0jcWAiCIAhiq7Eoiot+citH4fDpy71+63KypUVxsdD59cv4hW75PVb5//wyFRz++lL0A4/Dq/4CvBqUNxf8b1oOkj4rZY57fCBxYyEIgiCIrcbA5KzgJrfzEw6ftvjeRafhr3OBXK08bklR5HK4WJiLBchfW06o6Vn2UNMzQRAEQYgYnll9DeFi7eOi8/D/l+s7i9lSosgLerUFtRgSRdlDokgQBEEQIqTZR5F70KI0LteDtowocqPmBbNaK18MiaLsIVEkCIIgCBGyGMyyKIy8VfV22RKiyK2ZF4g0spoLbuf3RUh8Xdbcqe/l5PdHCEiadis2ygW3CYIgCEIeyHLUM69Eu50sbglRXEtT89JQjaLsoRpFgiAIghAh68vj3K61dUuIIh/5I62QKMoeEkWCIAiCECFrUVwc1HuzbAlRXEmnzduFRFH2kCgSBEEQhAiqUZQS1EfxRjZbH8XCkTnk9k8iu3ccWd2Xkdl9iRCT3TsmlA0vI0llRxAEcScoGJ5BTt8EsnvGJO67tir8GJbDjmV5A1Mous1+W5aiuBw/2hKiyLOcDpvLCdUoyh5JNYpB+VU4pqoDBWVVKKmoQkVVFarEVXiZnLmgihOa+ggvbbyh/FZC/uA0XOIzoWrliMMqWth/TpUQc9bAHHquvoipaZdYdquBC75VcAyUze1xQElD4vduSc6z9drUBsbewUhpGZBYdqshvWMEpr6hwrz5d0j87i0IX/eUze1gHhApSJ2kslspVsGxOHpBHefYfvuCiorEfddWRYXtsxUZJ5TYem5ijcyuSxLLkCMrUVy8vuLtrgazZUSRh5szr2Llwrjay+SQKMqea0WRH0SNPfzh6OyK4eFhYaW+VV+KrZrFs8L+/n5Y2drD3CdkxbWL/P2mPqE4p6KGwKBgVFfXCGXOt11CRFtbG/ILCmBsaoazWvqIKF+9lPODsZ6zF86zg2h8QgLq6upw8eJFid+7VWlsbERmZha0dPWgYmKFhPpuiWW5HFJaB6FmYQd1LW2ksYNeQ0OjxO/cqvB1r66uHknJKbigqg4tWxdBqiWV5e1Ibx/BBQMTtl4nYmxsTDjmSqv712YJdxB+LONjKJqamqCqrQu/rGKJ5SltUeTLY9GFlpMtJYqLWVw4/MC60hWYRFH2LIoiFxczr0BkZGWTHK4gfJ3mZWbuHXjDDudm8KYhQycPdgDNwNTUlHhOlJuF7+S5lFs7OiG4oEpimd6K1LYhGNq7oLCo+LbNPhTRPru5pQVm9k6IqW6TWKa3Iq62E0Y2DoII0b7k9uH7kPKKShg7uCB5hbW5vFlV08wanV1d4rlRlhO+33X39oVf5o2yODKzesnm+yruOHy95/saLoj88Uoqy7akKC7m2sK79j7PfCPhr0uC3+vZs/7CVUT3P97AXPO3iFC6BfL5mxfv9eybWQI3L2+h3CkrCy8zN08v+GWX3rDTWUrB8CwsA8KRnJoq/jRlueE7d2Mr2xXJC2/a13dwR3l5hXgulOWG7+M1jMyQ1XNZYtlKIm9gEqrsM13d3eK5UJabxsYm6Nk6Iad/QmLZSsLMJwQZmZniOVBWksnJKWgZmyGxsfe6Ml281zP3E861TrIU7i+cRSm81mtWW6u7pUVxaa4178XCXoph4EmEthgxjAXCOK0bGPHfIYL9Xc23QPx3y/pvPu31qbBxnDcwF5r6KKsLb0o6oaaNgqGZ63Y6S4mqaIaRuaX4U5SVpqWlBSqm1oJwSyrfpXgk58Lbz1/8acpKU1ZeDk07t2V3rTD3D0cKnQStOlExsbANi5dYtkvJ6BzFaVVN4RhKWV1SUlLZiXvEdeXKm56v9ZNbOQqHT+fvXUmt4a1CorjCUNOz7FlseuaDM/h6Q1ld+M6CD3LhI6Kv3eksxcQrCFlZWeJPUVYTXWPTZdcqKhmZo7WVToDWkhOKysuqVeS1iYfPXRAOnpTVpa+vD+e0DCSW71JCimphZWcv/iRlNRkcHISChu515Srry+PcLiSKKwyJouxZFMVTCudoB7+G8LNJPjqc9xm6dqezlLOausLOibL6+AcEwj0pR2L5LuXMBRWMj4+LP0lZTbR1dZHU3C+xfK8lo/MiVNQ1Vt3kRhFdY+/U2fMSy3cpXqn58PH1FX+SsprwE/yDpxSuK1cSRSlBorh5WBTFE6dOiUudstrwyzDc6rILnIOnz5KQrzGRkZGwj0qRWL5LOX76DInLGmNoaIiEhtuPgE5tHYSWlrb4U5TV5jjbF0sq36Xwy2qFhISIP0VZbX48fn15kyhKCXmJ4mouuE0sn2svuE2iuPYsRxT3s50SZW1ZiSgeO0nlvdYsVxT59Re1tUkU1xoSRfmGRFFGUI3i5oFqFKUXEkX5hERRviFRlG9IFOUbEkUZQaK4eSBRlF5IFOUTEkX5hkRRviFRlG9IFGUEieLmgURReiFRlE9IFOUbEkX5hkRRviFRlBHyEkXTkHPI7PEnZMgF3++EjYNEce0hUZRPSBTlGxJF+YZEUb4hUZQR8hJF3YAjMK/YS8iQH13fEDYOEsW1h0RRPiFRlG9IFOUbEkX5hkRRRlDT8+aBmp6lFxJF+YREUb4hUZRvSBTlGxJFGUGiuHkgUZReSBTlExJF+YZEUb4hUZRvSBRlhLxEUS/wKOyqDxMy5JDbO8LGQaK49pAoyickivINiaJ8Q6Io35Aoygh5iaJJsAISO10IGXLe52th4yBRXHtIFOUTEkX5hkRRviFRlG9IFGUENT1vHqjpWXohUZRPSBTlGxJF+YZEUb4hUZQRJIqbBxJF6YVEUT4hUZRvSBTlGxJF+YZEUUaQKG4eSBSlFxJF+YREUb4hUZRvSBTlGxJFGSEvUTQLUURBfyQhI/IZKn77hY2DRHHtIVGUT0gU5RsSRfmGRFG+IVGUEVSjuHlYHzWKUyhLCoaLqw2sLfVh52zDHnuhYeCSePrNM9NbgZqBWfGzO5uNIIrTE6NsJ9F3Df0Ym5wRT71FFuYwPTsnfnJns3FE8QomL/Gd8rXlPYjJ5ZTj/Aym5+7sAWsxG0cUF3B5ZHBJeQ9hduH25Xhlbgoz8+IndzgbRxQvItrDnu2rLWFhaQhHV1t4eEXi9nvtBfQ3l6J3XPz0DodEUUaQKG4e1lXT88IsYuz1UDr0k/hdWZjH7Ows5uZFe/EF9v/CFbYhX1nA/Pws8ny1kFBziR2S73zWvyheQV99IaKiQuBgfA661vaIjIpAZdugePrNM9yUhsisGvGzO5uNI4qzaC7JYGUcBGPlQ7Dy9mWPY9E6eFk8/ebpzPNFcu2I+NmdzcYRxUmUZ8QhMsIbmmcPwyU4hJV3EganbnciOYvaBCfk94if3uFsuBrFqU64Wjmid0r8nGVhfk7Yb88vLLBnVzA/Ny/so/n+fH5+EAEWuqgbXB9mTqIoI0gUNw/rWRTnJ0cQ6aYLS1cHGJhoo6p7DKWxLgjOqUZPTQysvMLhpfUtNF3ZWezUna/t2khNz5UJHojMbxI/A2aGG9lBxwuh8YkYmZzHxfZyFDX0simXkZ+ZjhgPDVwwtEH78KToA3cwG6/peQHJrobI7/qpCmW0owT+gZ4IT8vDzPwVtFfloaFvFHPT/cjIykGA0Y/QcgnDyMSdry3fcE3Pc6MItDJGw5j4OUtndZpQ3vEF1cLzqpxU9E5M4/JgA7JyM+Cg+i2MQ7KY2Nz5U86NLoozQw2wNFWHs6spTBw90TdyESE2Omy/PoPUQDOEJkZB98x3cEooEX3gDodEUUbISxSNgxUQ12G/TrCGY+y3OOn87jXsgnnmaZglXRDe41OihshWC9jEHUJAo6R5rC9iGWe9vxQ2jvUoim3FIbDySwLfd89258DALgTjl3rh6WAAcztX9E7OocBfB8n166MNY6OK4sLcCGx1lJmID6O5KAzW3gm4NNoGaysHNBSEwS+tEnW53nAPy8HcOjiQbnRRHB+ohoWxCdpHxlCe4AC3uHIMtebB0TsMxQmeiCrtQEGQLsILOkW153c4G10UB+uSYOHkjd6RQWQEWSCUlWtPSSjcYrKRGOCM/OYOxNkrI731miqxO5gNLYpX5ti6roHY6kFcubKAmhRPeKdUYKq7DKbW2nDySsDk3DCCrPTRuD4qzEkUZYW8RFE/8Bicak6sE47DPOcLqCd+hGNab+GY74fs8W4YF3wLo7x9bPpRnNH5EjblR3BG6yP2uqR5rD+OuO8QNo71KIrVCXY4oa4OF1dbuDibwcE/HOOzCygM1oGKbThm2AGYRHF1uVYUZ9rTcEzVADn5OSjIioSutiqaRxfQku6CfepGGJmYY9IeAN+YYuH9dzobXRRbc7yhYu6EgkJW3un+UNW3wPDELLICdXHK3BMzC0BpuBHiym/fJUAe2eiimB1gADPvYKG8M2IcoWodgPm5KQRaH4Ohbwrmrkwh2Vmdmp5Xm2tFcX4G3sbHoGtjJey37W31EZpVxfxxHO66e+CV0cq2hhESxVuERHGFWa9Nz2eM38aZ2F3CY+20D3HM4X1oRLyLT797HSeCP8Ah9behkr4bKr47sU/vHew32gHVtN03zGc9sJ6bnrurYuDkF4dpduCcHR9EV98QLrEzU3cvb0R42yKrZVgQxfia23eflkc2rCh2prOTG3OUVpahsqoMNQ31mJiZRWm0LTT1LFA9NEGiuKZcL4pteT7QtvMSyppT39qOmekxpPgZQdvYCV1shSdRXEOWiGJOkCHsguOulndTVz/mp4cQ4qAOY8cQDM9OkCiuJdfVKM4jL8AQ0WW9QkvQpYEODIyOoac0DF5RiXC0tUPveB8CLfVQP8T7L975kCjKCBLFn0RRK/F97NN/lz3+CN+ffwfaBbsEUTwf8QG+VWLPiz6BZti7+MHoXeiWSJ7fnWR9ieIcUrxtUD0i6m+4MDOGjDBbWDrZwtrYEKnVzciItEdWbQ8ud5XCxicCrdme0LH1Rv/4tPCZO5mN2/Q8Ck9TTRQ1d6GjvggR0dHo7CqDtYMfRpqSYeOfhobiINh6x2JyHQwN3eiiODFUBydrC9R296OlLBkRqbloKouBR1ga2gqC4BJXhvIoU3glVWFm/s4fTDe6KA43pcPBzQctvf2oyQ5HbEEdqpOdEJpdj/xoV8SU1CHNVR0RZX2C3NzpbDhRnO5BgJsvBsS74LlL3fB01IeDiy1srWxQ3tYCPyczdE8C1al+CC+sQrK3DpP3NCzjegsyD4mijJCfKB6GcdkX646zJttxNu4z4bFu0kfYb/A+e7wbP5zfAb3Cz3BEnU13fg+fHnsHhw3fxWHdHfhGYQe0ciXP706y32WbsHGsC1Hc4NlIojjUXouWvlHxM2D2YitiYkIQERWLtuExDLSWoK6bT59FaVEehgY6kZ4Sg5aB24/YlXU2niheQWdNMfrGfhqYcrm7ipV1MCMJQ9NzaKnOQ9fIBOZnLyOnoAgTAw2IS0rGwNidPwHacKK4MIPG8hJcvGYcUE9DrlDeMfHZmGDPK4oyMcrKfWq0G4WV9bjYXoKIxCxM0mCWLRcSRRkhL1E0DTmP3L7QdYezw1G4FHoLjxPLjKBupcUeu0BF4wRSOr1gZHAIbjGqOO9geN3n1iPKvj8IGweJ4tqzkURxI2fjieLGzoYTxQ0eEkX5hkRRRlDTs6Sm51347vgbOBP6AQ6qvw3l5F04rvcWDtm/i6NG23HQ/j3oFEue351kXTU9b/CQKMonJIryDYmifEOiKN+QKMqIrS6Kutm7oFsoeqxftBtaWaKBKlppH0Mzaxe0M3dBj0mhfv4uqCV+xPgYukU3zmc9QKIovZAoyickivINiaJ8Q6Io35AoyoitLoqbCRJF6YVEUT4hUZRvSBTlGxJF+YZEUUbISxTNQhRR0B9JyIh8horffmHjIFFce0gU5RMSRfmGRFG+IVGUb0gUZQTVKG4eqEZReiFRlE9IFOUbEkX5hkRRviFRlBEkipsHEkXphURRPiFRlG9IFOUbEkX5hkRRRpAobh5IFKUXEkX5hERRviFRlG9IFOUbEkUZIS9RNAw6haBmPUKGnPLcLWwcJIprD4mifEKiKN+QKMo3JIryDYmijJCfKJ6EX6MGISN8GSc8PxI2DhLFtYdEUT4hUZRvSBTlGxJF+YZEUUZQ0/PmgZqepRcSRfmERFG+IVGUb0gU5RsSRRlBorh5IFGUXkgU5RMSRfmGRFG+IVGUb0gUZQSJ4uaBRFF6IVGUT0gU5RsSRfmGRFG+IVGUEfISRbrgtmyhC25LNySK8gmJonxDoijfkCjKNySKMoJqFDcPVKMovZAoyickivINiaJ8Q6Io35AoyggSxc3DoiiePH0GV67c2Q1ko2d5oniaynmNIVGUb0gU5ZvliqJbYjYCAwPFn6KsJnxf/OMJEkWZQKK4eVgUxTPnlTA1NSUuecpKs7CwAGUmilk9l6/b6Szl6LkLmJycFH+KspqEhYfDMSZNYvku5aTCOczOzoo/SVlN9A0MmCj2SCzfa0lrG4amphadCK0hvOxOsJN2SeW7FP/sUri4uYs/SVlN+L742PkL15UriaKUoD6Km4Nr+yieUdfB4OCguOQpK83MzAxOKakid2Dyup3OUi4YmqG9vV38Kcpq4u7lBZ+MIonlu5Szqpq4ePGi+JOU1URdS1uoLZRUvtfCa9MVVdWFkybK6jIxMYEzisoSy3cpcXWd0DQwEn+SsprU1tZC08rhunIlUZQSVKO4eVisUTT0CER2do645CkrTVFJCbSdPFE4MnfdTmcpNqFxiIuLF3+KspooaekiublfYvkuRcXCHnV1deJPUlYafsg8qKCInP4JieV7LflD0zhw7gKmp6dFH6asOB0dHTinbyKxfJdSMDyLszpG6O3tE3+astI4uLgiIKf8unIlUZQSJIqbh0VR5E2mGiYW6O8fEJc+ZbkZGBiEmoEJcvtvXZvI4U14mobGmJubE3+aspIUMyE3cPa6rZAvElxQDVtHZ8zPz4vnQFlJEhITYR0cI7FsJcH7zQUEBVHz8yrCy8zT2xdeaQUSy1YSkeVNMLa0plrcVaS0rAyGbF9SMDRzXZmSKEoJEsXNw6IocqIqm2Fo44D6hgbxEqDcKnzHXllVBSMbRyTU376zP4cLjldKHty8vGnnvsJ0d/dAx9IOqW1DEstWEoUjs7AOikJMXDyV9wrC1+2a2lpoWzsINYWSylYSvJZL18ENRcUlJIsrCC+r9MxMmPsEszK8XlxuBd+feLL9ia2zi1yOyZshvM9yaloak0RPZPeM3VCmJIpSQl6iqB90HO51ZwkZ4cY46v7edRsJFx4tKwfom5ghLS0dJSUlhASSkpNZGZlD184FSU1915Xh7eAHAreELJhYWgsH47GxMfEaT1kaXhPY29uL5NRUqJtYLrvJ+Vp4Ta8Nk0XezNTU1ESDtm4RfhDt7OxEaHgE9Oxdkdl961H8kuCtE4Yu3vALDBL64/L+uxTJ4c30LS0twomjBZPEnL7bN/EvhctiYF4llHQMYO/sity8PIn7rK1OUVERwiMioaqjBwv/cOQNTEksTxJFKSEvUTQKPoPINgtChih4fX7DhsJ3PNFVrTD1DYOWoychAfOASMRUtwlltbT8lktURTPULB1wRlkVx06eJiRw/LQCzrMDoDnbsa/mILqI6GBaAWVTa5w6ryTxu4jTOKFwDkr6pnCKTrnpgXQ5CCdDidlQMjTDybPnJX4XcRonzylC2dgSPulFK6pJlETe4BQCcsuh7+4vcZ+11dF28oJDVApSWwcllt8iJIpSgpqeNw/XNj0TBEEQxFaGRFFKkChuHkgUCYIgCEIEiaKUIFHcPJAoEgRBEIQIEkUpIS9RpAtuy5ZrL7hNEARBEFsdEkUpQTWKmweqUSQIgiAIESSKUoJEcfNAokgQBEEQIkgUpQSJ4uaBRJEgCIIgRJAoSgl5iaJJyFmkdXsRMiKVoeizV+LGQhAEQRBbDRJFKSEvUdQLPAKryh8IGXLQ7S2JGwtBEARBbDVIFKUENT1vHqjpmSAIgiBEkChKCRLFzQOJIkEQBEGIIFGUEvJrej4K66r9hAyhpmeCIAiCEEGiKCXkOZgltduTkBEpDEWfPRI3FoIgCILYapAoSglqet48UNMzQRAEQYggUZQSJIqbBxJFgiAIghBBoiglSBQ3DySKBEEQBCGCRFFKyEsUzUIUUdAfSciIfIaK336JGwtBEARBbDVIFKUE1ShuHqhGkSAIgiBEkChKCRLFzcNGEMWS3h6UtuSjaGRW4nRCOhQPjqCsJRfFQ2MSpxOyoXjwIpW7nCltLUJJT7vEaYT0KOlqQGl7pcRp6xUSRSlBorh52AiiWFEViPqwl1A0PClxOiEdyloKUB/yLEq6myVOJ2RDaVuJqNw76yVOJ6RPXdR2VJbYS5xGSI/qbBXUJO+TOG29QqIoJeQlilo+h3A8+DVChnxt8RdUX2Yb9DqmriYQjeEvoXp0UuJ0QjrUthegMfRZ1PQ1S5y+Xqm6NCfx9eWy1s+vldqOElG599RLnE5In8bo7agrs5c4jZAe9TkqaEjZJ3HaeuXSHImiVJCXKPYNd6Gpu4aQIa29DeAnUOuZSy3B6I56GTPzMxKnE9JhfKAYXRHPYepyq8Tp65Xx6bWtF2v9/FqZGCoTyn1ytEnidEL69MTtwMVaR4nTCOkxVKSK/sz9EqetVxYYdzIkihTKKjLeGoweJopXFmbEr1BkkenBYnQzYZkbaxW/sjEyM7O29WJ6elr86M5kZrhMKPfZS03iVyiyTm/8DlyucxQ/o8gqI8WqGMzaL35GWU5IFCmUVYREUT7ZqKK4VtEjUdx6IVGUT0gUVx4SRQplFSFRlE9IFO9MSBTlHxJF+YREceUhUaRQVhESRfmERPHOhERR/iFRlE9IFFceEkUKZRUhUZRPqI/inQmJovxDoiifkCiuPCSKFMoqQqIon2zVGsW1iuZaQ6Io/5AoyiejVWYYKVISP6MsJySKK0zn8CVUdPQSMqSuZ1DiJQLWE+ND5Riqssbs/JzE6YR0mBzrxFClBaanhiVOX69M8MvbLFyROO12zLDPCZ+XME1eTI13i8p9cv1vi5uF4VpHjPXlSpxGSA++L5me6Jc4bb1Cl8eREvISxQMuETBMKCRkyFtGXhIvOkoQG4WNfsFtgiDWD3TBbSkhL1HcbhOBvwoZIWTIzzRCJN7GiCAIgiC2GnQLPylBorh5IFEkCIIgCBEkilKCRHHzQKJIEARBECJIFKWEvERxt30kXsu8TMiQuwzCJG4sBEEQBLHVIFGUEvISxU8cIvFW9hghQ+42JFEkCIIgCA6JopSgpufNAzU9EwRBEIQIEkUpQaK4eSBRJAiCIAgRJIpSgkRx80CiSBAEQRAiSBSlhLxEca9zFAwbpggZ8opluMSNhSAIgiC2GiSKUoJqFDcPVKNIEARBECJIFKUEieLmgUSRIAiCIESQKEoJEsXNA4kiQRAEQYggUZQS8uyjqFs/RciQl6iPIkEQBEEIkChKCXmJ4g6bCPxN6AghQ/6BahQJgiAIQoBEUUpQ0/PmgZqeCYIgCEIEiaKUIFHcPNxOFLN6LsMlLgOaVg5QUNfCkdNncfDEKULMifMXoKRrCGPPIERVtqBwZE5iOd6KwuFZxNd3wSejCI4xqbCLSCLE2Eclwyu1AOFljcgfnJZYfiulYGiGLatWeKcVwCEqReL3blUco1PhnV6ImOo2oZwkld9KyRucQlhpAzxT8mEfmSzxe7ckkUmsTPIQmFeJzO5LEsvudiQ29sI6OAYXDExxRkUDh06ekbif2pqcxmkVdSjpGcPcLxzRVW3L2j+TKEoJeYnih3YRuD/xEiFD/kc3VOLGwomv64SyvgmCQkJRW1srLPu5uTnx0qHwTExMoKenB9nZOTAws4BdSKxwYJRUnpLgcqlmZgN1PUO4e3ohPJzt0KKjCTGRkZHw8vGBiaU1TqlqCjKdP7Q6YeQHiZCiWpzVNoC+qTk8vX0Qwea/9Ps41762lYiIiICHlzd0jU1xTtsQwQXVEstyOXCx5zJ+Rl0HptY28PH1Q1RUlMTv3YrwsvDx84O9k7MgeaZegUjvGJFYlkspYCeXXqn50DIyRUJCIjo6OjA6OoorV+6s5Kyn8LK4dOkSuru7kZqWBkNzKziEJ9z2BIhEUUrISxS/cIzE3uJxQoY8ahImcWNJbuqDpoExhodHxEvj1uE7qjS2MUoz2dnZiI2NFT/bGIlnO20rv9Bl1X55JOfAmAlQc3Oz+NOUW2VsbAzuTGLMvYNXXLtYMDwDu9BYWNnZCzvJpeEHlfHxCXT3DjAGcenyGBYWFsRTt2Z4Odk4OMIxMkkQE0nlejPyBqZg7OYLDybjXGAot878/LxwsqllZo2U1kGJZXot7olZ8PDxw/T0tHgOlNuFV3JExcTCOjgaRbeoWSRRlBLU9Lx5kNT0nNM7jrOaesLZ2HJz/vx5KCgoiJ9JJzt37sSzzz4rfrZxEhoRAafolBvK9VqC8irh6OomHCAoK0smO6CaeQVKLNeb4RyVzJZLpHgO14cfQFraOtDY2oPuwcuMMTS296G2oZntUAfF79q6CQkLh3NsqsRyvRnG7n7IzcsXz4Gy3PT190NZz/iWJ0JxtR0wNLfEzMyM+FOU5Yaf/Dk5uyIov1Ji2XJIFKUEieLmQZIoBmSXwYVJzEpy4sQJnDp1Sqq1MG+++eaGFMWpqSkoaeois2v0hrLlZHZdwqkLatRMtMrwcnPx8IRPRrHE8l0K72+na2J2Q3lzQWxlglhS1YDW3oto6x29jlZGRX078gtL0d7evmVrGHm56RiZIramQ2L5LiUgpxxOLm6QxdrNF+HSxcDPtXjF2vg4wCsv2SEKExOi927EFBUXQ8fJU2LZci6Y2qChsVH8bspKwytAjipr3LSWnERRSpAobh4kiaKuvTtKy8rES+H24QfQo0eP4sCBA5idnRW/uvZsVFHk8fUPgHtSzg1ly/FIzoWfv7/4nZTVpKmpCSqm1hLLdylGHgHIyckVf1IkPp1dXcgrKkdlYycaOocYwzelrq0f+WV1SEnPEg7Q67mfLt8/8z6z/f39Qv9ZaSUzKwum3sESy3cpZ3WN0cXKV5rh0jc+Psf+rivo6xPJ4OAg0N0NdHbyri9gMg+0tYngj/lPuHhRJJEbSRrHmfGeYCeSN+tLxwdoUHP+6sO333PKqsjtn5BYviSKUkJeosgvuG3YMEXIkFckXHD7uIqmsJyXG95PZt++ffj888+F2jRpZSOLIt/QTXwkDxRSMrRAKz+aUVadyclJnFK8ILF8l3JWU4dJxU9NyHl5+YhPz0d5Yw+qWweWTVlDF1JyShAaGYPqmpp10z+M991sY+tTQkICvLy84OLiIsAf84E5fCDaSrqRSArfH/DBRJLKdymnFZWkuh/g4XI/cukyevuG0ds7wYRxgQH2WCSEXBZvBpdJvvi5N8/Nrf9aYd4d5ZzSBaGfp8TyPXteqifkWy18XVJWURGu6CGpfEkUpQTVKG4eJNUo/nD8zIqa2XjNxRdffIG3335bOBuWVjayKObm5sLAPeCGsuUcPKskiA5l9eE7+2OnTkss36UcUzh33YGV17a5+IUhMrMUuVWtKG3oQSmTxuVSUN2G0NhU+PgFoqKiQu7Lkv/t/Dv5aE6+Lw4MDISzszMcHBxgZ2cHGxsbWFlZwdLSEubm5gJcHPnBZ3h4WPj8SsP3B/tPnJFYvks5dUZB6n1v+W8uvDyGsvEJtPf1oaWtk0niJXY8mhdqDdmfxY5JN9LfP8dkcRwNDX3IYZJfUVElnuP6jqKiInL7JyWW78nTp1e1DCk/RYWLYjeJosSJ0oJEcfMgSRS/O3pKvASWF15bsX37djz99NNrrrm4NptVFL9dYflSJOfoyVMSy3cp/JpqS1NZWgpbJ08EJeYjIbcKedUdKKjtWhFZZU3w8A+HnYMTCgoLZV7Lw5vM+H63pKREuIyNu7u7IICOjo43SKKFhYUgiKampjA2NoaRkREMDAyE1xITE8GPESuVjX3HllfeJ5nASzv8t6YMX0L02DSapudQNTKKgroGVFTXoqdnCGNjC0KNIWdsbJ7J4SDKymrYsSobkZFRCA0NFSgoKBDPcX3nlqJ4ivYfaw2JIokisQKkIYp8XXjxxRdx7733CjUW0gqJIuVWWYsozrQ3o/zofrh89zU8wxIRm1uJpPxqZFW0IatyZSQX1sLWxVu4NJIswgWR98lMSUkRag95kzKXRFdXV0EUF2sTbW1tr0qimZnZVUk0NDSEvr4+9PT0oKurCx0dHZiYmAj78ZU0Ed9pUUzqHYF7zyVkXZwUSB+ZQGxbL0LzioTuBN3dfZiZWWAHwRFkZmYhJibmBkrZCcJGCImibEOiuIlE8SunSBwtnyBkyFNmN/ZRXKko8qa8p556Cr/73e+u6wu21pAoUm6VtYpi18nDKP+Xv0baU3+Aj6kR4rLLkZhXhYSCWqSUNi+fonrkldZiQIrrPg8XRN73kAtiWFgYfH19hVqxpKQkoWaspqZGGDTC98X8f/76YnMzl0Qug4s1iVwSuSBqa2tDS0sLmpqawuOgoKBly+KdFsXE9kEYVvfDv3UEfgy7+gFolvfgREEHjqbWwDIqBdFxcYhj8BpXXm7Xkpqairq6OvEc13dIFGUbEsVNJIrv20bgN7GjhAz5hc6NAy5WKop8lOVDDz2EX/3qV8IKKK2QKFJulbWK4oivBzoP7EETE8VeY2Ukfvoyory9kFHSINQSxubVIK6o4abEFtQhqaAGxVXNqK8ol2q/Mb6fLSoqEpqJOXl5eYIYcnHs7e0VTsj4e/joV94vmPcT5jK0WKvIhXGxZnFRGHltIhdEDQ0NoabRw8NDuEPIckfQ3mlRjG/ow5m0Vqhlt+OHuAZ8FlWHXRG1V/k+rBRewaI7G/GBPfyC/dfCy5CX30YIiaJsQ6JITc/ECpBG0zPvVP/AAw+QKF6TrSqKfCTwYg0XP4Hgj7nEyOKSMmsVxc4j+9F95iguBXvjcpAb2h/9W9S+8gtkmKkhK7sQhdWtSMyvRmQOI7f2OiKyq4RpubklKNVVwHC4j3jOawsfBMK3Jz5Ihq9DlZWVwp17Ojs7hfJcFETeF3hREHmZ9/X1gd/+MSAgAH5+fkLto4+PDzw9PWFvby80P/OaRF6zyJ/z5mtem8hvI7fcbfZOi2JsdTd2e5dhl1cZPvAovYFvPPPhHRKB5ORk4RhVXFx8HVy0uWRvhNwpUeTrE+9ru1x4bfRGHJhHokiiSKwAEkXZZD2LIh/BysWNs9ZaMD4vfrDgy72+vl4YaMFrbgoLC4XHZWVlwgGa7y/4ZVz4QYXLkDTEca2i2Ketiq7jB9D+wcvoObgLgyd3o+eN/8RFwx/RcHYnclxMUFXbzISxBTG5VQjJrERwRiWCUosRn1eDtKBANJhro2nn6xgNW/t1Mbn4cSnkl7MpLy8X+iXyC33z7Yt37+BlyGv/FsuRC+LiATs/P1+oUeSSxJug4+PjERISItQw8v6JHF7TyPsz8ppELpH8+YcffijI4nJyp0UxpqQDrxpkYqd5rkS+sM6Ed1A4MjMzhab5qqqqqyw200uzD7UscydEka9ffNvl62BLS8uy4OsZr8HdaCFR3ESi+K5tBP418iIhS7RIFGWR9SaK/EDLBY1vv42NjaiurhaEhIsIf20l0rgoh7yWiwsNb9bj9/nmB+jFJr5FUeQH6cUDNN9n8HuC84ML7y+31nVlraI45GiLfkMtdH65A013/x36vn8TFzW+xWXLkxg99jQufvJzNChuQ0V2Olo6B5BT1oDA5EJEZpQhyVgbVY//AoPGWujT0cSlmFDxnFcXLn+8qbm1tVWoReQHYV77dfHiRWGE8mLtIb9tG1+Oi5ev4v/zZcgHafDy5vPgBxles8hrDq2trQV4MzQfEc0HwfDR0Z988onQp/jf//3fhX6Py8mdFEX+N6eWteO1C0l4Wz0Vb6vdyKe6ifDyDxPWP14jy0V7Ed7kvFiWGyHyFkV+4sHlmvfhXC785ITfjYvXWssifJnz9V4WrREkiptIFL9xioRS9SQhIxQZz5mvfTALieKNWS+iyEWCb6sNDQ3CgSArK0v4bfwxb47jgsGlkddY8dqqxZoqflBdlJHF8J02Fxl+gIiNjRUGDfC+YLwma6ko8nnzgwmXGF6ryEfonjx5Uhgd/8gjjwh9WvlvWEvWKordp4+i8j//Hj0nvsNFByMMKe7BiNKnGHjnXzGm+wWmLPZgau8/YOirf0WDxSlUlVcjICIJmQc/QssDf4shYzX0nD6Emgfuwoifu3jOKw8/EHKR4WXHRzFzyeZyzbcrvq/lwrh0WfDw5cTfx2uAOFww+YANLn5cFPm8eE0i74/IL6HDhfGzzz7Db37zG/zLv/wLXn31VaHWkddILid3QhTHxyfYyYXohISfZOSVt+C8bQ7eOhmLbcdiruPj81HwZqLI12m+vvMTmUX4+szX7ZWM8r6Tkaco8vWPl9dSEbwVvIx5v9cff/xRJqLIf9Px48dw/3334ty5c8K+R5ohUaSmZ2IFUNOzbHInRZHXOnG54LV5fIezKHJ8u10qiotNcrzvG69p5OLAd6Lvv/++8D4+Lz59UUD46Ft+tw/e3CRJFLkk8nnz6XxAxVdffYW//OUvghjec889uPvuuwUefPDBOy6Kl+OiMGhugObn7saIpSb69r6CiwaHMLT79xj59JeYTXXHrL8Sxj7/GS6+/3do2/U71O38A7q2/QoXHQ3Q/uFLqPqPv0HdEw9iyNlaPOeVh/c95GXH+xByQVBWVhYOvrxMed9DLvH8wMllcbHWl+/j+TLm07kILfZp5ANf+Gf5vNTU1AQ55P0TF2sQ/+3f/k24MD6/VAxftivJnRDFoqIy+PrGs/Usmwm0aH2tb2hETHIZjmgk4LU9oXj56xCBDw4Gw9svXKgp51LJ12kOPwHiMszL8GZSzMu1q6tb2AakeS3Y1UaeosjFj2/DOTk5Qq00P3HkJx58u+flyLuUcFHnJ4h8f8JbBPg6pqqqKjNRTEmMxz3/+1uc2fcZdrzxMlqam8RTpBMSRRJFYgWQKMom8hZFfsbNhYHLH5cFXuPH4SLH+60tFcXFZmFei8UHPhw/fhwfffQRXnjhBTz22GNCrR8fHMGbjHltA6/x4gcNflDh38GFkMsN/y5+kOEHD39/f2FU7ZdffolXXnlFmAe/tuaiHF7LehDFruMH0aejhtEAD4x6WKHjz/+Enm2/wGUbBVy+8DamvRQx+f2/YvL0Y7h86BEM7vhnDH72AHo+uB9tz/4SDb/7f2h6+QnUP/8URvxXf7BcvL7h2bNncf78eUES+Mhk/pi/xqX7WlnktWN8/8u3NV5ju9iVgIs8b9LnosnlkF/+hgviXXfdhf/+7/8WLorPLxvDm7lXkzshiuXltWy9ioeVlSMTkjB2AC1AaWm5IC55+cVw80nDN0dC8Zd3fbDzSx/4+EUItd5cEPnfybcLLoe8NpGXF5/Gy25pNwuRKPaiprcP5fWNQpnyY91yu2NIO/IURb4t85M6Nze3Gy6/xPcTXFr4yaG3t7fQ55XXJPJLMMlSFLu7u9BZEI3Z+hT0lcRjaky68k6iSKJIrAASRdlEXqLID4JcInhTEK/143K4WOMnSRT5Yz54gfdXW5RDXuPH5fD++++/Wuv35JNPCrVUXAZ5MyavaeSf40LIZZMfSPh0XnvDB0XwmsNFObzvvvuE+dyK9dD03G+si26FY2jb+Tw6d7+EUXttDHz9FC6ZHsalI09h/NQTmFJ4EON7/g1Tjicx/M29GPj0fnT++WdoeehnaP7z79GnpoCGV57HkIuNeM4rD+8z+Prrr2PPnj04c+aMIIgcJSUlHDp0CKdPn0ZwcLBw8ODN+LwmcbFpmu+HF5cBlwsu6vwAzu+7zpfjL3/5S+zYsUOoCeaCuZbcGVGsYSczFcIJTXBwGJOSICYzSeLb8VUKJy0JienQMQjFri894ecfKdTQ8uMU3y54X08ulbw5f3H959sJrz3jIsSb73kWFq6wk6EudDAZ756ZReXgMCqaWtDU1CzUSPL+cvKMPEWR76v4ZZT4QCe+nvF9BpdHfiLJ+7zy8uLrDx8ExdczfjLCT25kKYo8CyOdmGvKwGxrHhbmVlb7fbuQKG4iUdzrHAXDhilChrxiubo+inxF4/LBa5N4LQW/1/Pu3bsFSeFnpIvXf+M7nWvhosHhzZaLLNZ+8eYwLjh8Hnye/MDJ+1TxndQiXIju1Fn+SiIPUeQ1TLyZjIsDPzjyAyMXCF5rwg+CizV+vFx5bQCvZTp8+DA++OADoa/g448/LsjhtTV9izzxxBPCQZgLIj94cFnkAyH4AAkuNhxeu8DlkQ+U4CcKfF7L5dFHHxUO3mvJWkVxwNwIPcoK6PzmPTTd+zP0fbsNlyzPigazHHgYl3f/HaaVn8FstAWmIyww9MUf0fvyz9H99h/Q+ug/ov43f4Pec0fR8tF7GHKzE8955eHLkTfrHTt2TKj14//z2kB+0Wxe3lzqgx0cUOXmJtQaLzYJ8v95jQ8/cF+4cEEQS769cFHngsjlk9cK8+OBNCIPUeSb9rWbd35+Eds35DBxqWQUsvWZX/qmiu03ePeGNLYOlTOhqUZ8diEOemYgKDJOOEYtnjwtDvDh2yOXRH7pIL4d8JpaLtWL8syXQWtbD1pn5tA2O48WRuXENPL6R1DZ1Ma2qXa5CiOJIgtbEWaGuzBSxU6QShrR1DKE0UtTgtSvNSSKVKNIrIDV1Cjy5i9+hs93MBx+ds6fc3htE18/FmVxqRwu1njxHRKHX8uN35aMN1suXv+N75D44Ae+43Jycrp6L1t+0OT/cyla75GHKPLaEF7OvMx42fEy5E1HvMx5bR1vluTSyCWRXwbl5ZdfFuRwOTV+vIaRnwhwOeTSvtiJnS9fPj/e/433g+MHGC4y/P0rgd8XnIvoWrJWUew89AMqf/F36PyaiZ7+OfTvfwcjip9i4K1/wqUTz2FC7Q1MfvtPmDh2DyYdjmPcTR2XLE6x972B5nv/Bs1P/15oeq655/cY8XERz3n14dsVPzBziTlw4ICwHXDJ5weNErZNNTDx530S+QkA3+b4dsRlh3f25ydpfLn913/9lzBIhW9XK+2DeLvIShT5gX9mdg5dPQNobu1CMxO2ixdHBWEsKSll63UYO2Hh+5E8VFa2o7n5MhPmK0xkBtk+JZcJYwoqKmpRUteAIiaHvIy4SPOTJb6O8ZMZvg/hgsMFYREuPYv9EaemZlDbOYDSiZnrKGGkXZxEatcQqps70dHZJcilpMFF0sxWF0W+TlRU96Egrx5NJdVwcU3F3qPBOKESx04GapjYr638SRRJFIkVsBpR5P2h+EFqseaP11pwQeFcK3+LF//l8Ou2ccHgF/rlOxa+0+ESwvvFLN6zdqkU8lorLiG8Qz7fQS3ebYKLEa8BWM+RhyjyEZy8bHnNHi9H/v8ii+XGa2j5Dp/Lg6SavZvBhZLLPS/3w4cPCzVcfDnzAy//n/eh430RudDwW8Rx8VsJvLmb1/isJWvuo3jiEGp+/x+o+8PPMWKujp4PH8XgkTcx8MY/CINZZhIcMet5EhMnHsTF9/4Ww1/+Ef277kHHE/8PHW8/gObn7kLVv/1/qPr9LzFgayKes3TCm/W5BHJ4zSuXQ97vjp8M8OXLaxu5IO7atUuoAf7Xf/1XvPHGG8KyWe4o5pVGmqLIReDS5Ul09lxEXSMTtIoWVFTWo7a2ngleLXtcy6SsB1PTM8KJYXY2F8Jkts9JZutlLjsBGkd/P799KNDQMMyEOp2RzNb1WuGEhh9oeVnx9ZfvMyTB90WLo2nHxiZR1jmM5OEJiSQxgnsvIaZlgAljLxPVXoyOXpKZMMpTFHlZ8dHxvN8h3+/yfQnfr/D9Od+H83013yfz/S+vjeXbvqxFMbugA18cCIK3ewbinKJgbBqDrw8FYtf3ATigEIWxcVGXgdWGRJFEkVgBKxVF3kGcN0dyAeFn6lwW+cGJn3HyHctiUyWXRb6Tubam8FayyEVxaQ3iYvMmlx6+w1/c6fOzX95Ut54jD1HkHfR5+fDLn/DaP355FD7whNfs8uXDy5WXIRd7XuPE5W+5PPPMM8Ly5QcEvuz4cuMHEX4w4X3m+MjZbdu24eOPPxYOHC+99NKK4M2ivL/dWiKNGsWqX/0TWt98CsNGSsKdWbqf/3tc0vgClxXfxLSfOib3/AOmTHZj3GQPRvY/juGDr6B726/Q8uDfo/7Xf42mFx5Gy+4P1nR5nJuFSwgfccoP4rzMee3ivn37BPio9D/96U/CdRDfeecdQeqlXYO4NNIURV4bzvcREVFxSErOYgfGXOTllTMhzmXrL+9PmMUe56C4pALdPQPsxHBeqP0rLS1n7ytjZcEvLp6HRiaZ/BraPT0TTK4b2WvpwrbA19nbwcuTX5uSZ2RkAgXtwwjsHEUAw79jFK4tIzCuG4BGdT/OVfTiTFkPTjGOFHXCqaILlc396O7mg2bGpd4kLU9R5LWHvDz4vpuXCW+i5/sQfoLCp/EaRb5+8f0835/zfTU/UZGVKM7PX4GNawG++DEQWj+YwPYwOylSCRMk8ZN9gfh0fyB6+tfWnYJEcROJ4mcOkdiVP07IiI8ZDxiH3bCh3EwU+c6QN2nyfokcvkNZ2sS82LzMdzgcLhscXvO4WPv4/7d3HnBRnfnez+5md93y7nvfu3f33i03m2xNYtx0YxITk5jEFI0asZLYu9g7YEHsNEEERBRQVAQEBERUikoTsIINFMQGKIKCBUXN731+R8YgjIaBmaH4/33y/QAzw8E8c+ac7/k/5eiksqZY6qqQj5JLnWBSLvkYxww11ZhDFFkN4WxZTkoZN26cdrXPdiSUR45Zo2BQqimKlL+6woof3x/OoOVEFQoj33MuXkzB4/s8bdo09OnTR6s2UvwMgWPxOMmgIWmIKN65eA4lft440foZnPjfnyP/4xdR2P99FH72B5Q5jtQW3L4x8z3csnoG1/r9AhW+01Fq9Q4uDXwDZ1/7qRLFX+JM53Y49U4bHHvhORT7uFdt2fhhhZDdqGxvtt0zzzyjdTF/9dVX2mervrOYDY0xRZHjjNmFy6EMYWHhiN+VhLT0Q5rs7d+fqR7nMJYUTRhZTTx0KAulV8pVW9zT9vvc3Hx1YZStTqh7lRimKqnJUseGQOzbd1j77OnGSD8OSpBuMktxcTliTxXD49glLKQMppxB/9156JuQiz566KcYqZ5fvf8cDp68iKIinhvvL8NjjJhbFHWznnls/qFZz7o7/ZhKFJPD42Bp4aykMAhLhjnBbepKjJsWqoni6JFr0HPIJmyLPoBy1d71jYhiCxJFi5WRaJtQ3kQowZe+IRjouBwj51pj5GIX9b0Pvg5MhMW6/er5YnztvxPtY8+jn9safBKjbxtNj78sCav1QXmUKLKCxatL3SBxdo/xK7sjdfDnusBtPAp9z1NOWDGjXPB7jtFi9aypxhyiSEHQjWcbMmSINkmFYxFZsWNVkDOL+ThPxpwFW7Oq9zjYVU1x58mAs8/5M4WU1V52NXO7nDhBiaSsUvwMgRUxvp8NSUNE8bu7d3C3tBA30nbhwsjeyH3pNyj89n1cC3TFdf/5uDr6FZT3bIVbU17ADdv2qFhriytKFIv7v4Zz7/xfnP3sBZxs/Vuc+MfvkdOhHUrWrqrasunC4RY8wOs+d+a+UDLFGEUKI88p/IwnJiZj/8FMHDt+UokKu9uT1AUoZzjvVXCWPcfJcmJJgdZVfOPGTVy8WIy8vLPqYojLQiWofT211rFDB48dujUC2Y6sJvLvk4LCcqxTgmgVdwp9t2ajV9SJOtFbMXp7DkIPXFCf+f3a8ABj5Ekdo8j3wstqASy+WKSJ4bQhnpg9bT36jghGz4Hr0e1PX8Ki7yp8+9FUjHzpC8zpORpZqt0NjYiidD2bnGdmLcZzPqe1738UUoBWG87j6cA0vDvaDr8JOIY2U+bjP9eX4sdBZ/BrvyP41bpc/Giz/m01NoZ0PfPExAoSxYEywS6wtm3banLCsVKEXZHVvzcU3YxcLttiMd4C3RZ0w5ezv8SbHd/U/jaXYOHz7777boOXVzFlzCGK7IobMWIE+vfvr1UPWRFgpY8VVy6vwvdg7NixWjfSgAEDalX1HgffY1Z2OUZu4sSJWjWLd1bhjFz+zAolt8mZ6RRH7gOGwPX9eNJuSBoiirrcq7iOyoJTKAtdjeKZA1Bq2w/FvZ7DleEv4fqEl7XJLNdH/AnXZnXClbHvosx9Ggq6Po+81q2Q1/5fyH7t7zj6j2dQss40oqjOm00mpprMwlAQuD/z4i8z6yhO5eZj954kJX9J2L49DhER0YoobNkSiejoneqzfxwlJbe07nlW8crLr6Go6JL63O3VKmG6O7JwCSHOgOaxixe6+rqI2dWZf7YMs3achEVQFnrUA5+kM+qzl/CgQtnQPGmieLfyDm6VX8f1K+p9+HQ4LL5y0iqHg4avx7fDAzVp7Gm5Bt2eboMenezR40NbdPvRC+jy1L9g9834qq3UPSKKIoomp7oo/sJ3G9paB+GXvtH4YMg4/ME7XRPF//LPx7+s7dB6wSa8NN0Oz644Ums7TQFDRZEzZ9n1xTs8cIwaF07mGEJ2fRoDdpVSdLjch6WXJdqvfA9vbWiHX7f+tba2HxcO5rgsdr096aLI92PYsGEYPHiwJm2UQh7EuSDu0KFDtSogpY7VV/7M9fTqCrs1WVHkCYEnLd0Adkohv9rZ2Wkyysoi/x4rlobAfy/X/2tIjCGKutwtL0bl6cMo87ZB8Ve/R2mfP+J2hAtuOXyF62P+hivdf4GS/v9E+YoZOPfWr3Ch7/vIe+s5HPntT3D85b/hakRA1ZbqFgognYVzsvg94bwIDjPk/IorV9gdymWoeBeW+69tbGk0pShWD4VOWwLo3HkUFF1Gzskz6rN+QKsWbtu2XQnjVq1LurDoIq7f4HIp9yeU8CvPS6zqUdhYgaWA/lA4gzYn9woGb8xEd78D9SJs71kltbuqttjwPEmiWFZwCTvneSJkyCzEO6yG1cs90LOXJyz6+6PfiGANiqJFVxd0e+p59HhvOiw6L0W3n72iRPGfmGs5tmpLdY+IooiiydEnik+FHkG7cU74eVCuJop/dtmMd2duuv8769Pw1uQV+FVQ7W01NvUVRQobq0qsDOkWdzYWnLDC8Y3zI+bj4yWf4iO3jujYs6MmO7xPLUXxd7/7nYiiej9Y1aUMsguack34GEWP1Vc+TlEcPXq0VqU1BI4P5bhHSiG/8n3hTGp+pTByiRz+LZ5kWFk0BAouJ2o0JMYURV3ullzAzT2BKF/cF7c2zMbN/q1w0/4TXF9qidIRr+Oa/2IUT7bA6Td+q01mybd4H9eTI3Cvou6D6+9Xz26jqOg7cKUnHkoLC4EzZ4D8fP3wOYqjcqhGE0ZziaIurBRyHOPVsjJcLrmi5CUNAevXY09iktqnU3H4cKZqm/wGT+LhuMcjJ0rRzTMdXTzSDMbCKwMxqfnqeNSw5Z6qx5yiSClpjFnP99TVT07sXnh/MgzubfvA+/1vMO/lLuj9fB/0HLQBFj090HtYEHqxmkhR/Gwhvn6mK3pYuKIHRbHVa+isRNF1kl3VFuseEcUWJIpNdcHt6csdYb2rSPt+YVI8rJzD1fenMGaWKxYdLcDEBYsxQ314Ph4+DS/auOBFa2e0c96M2Vn6t9eYGLLgNruGeIu3X/7yl2jVqpXG008/bTp++jR+8tOfaPDnn/3sZw+gLHKcVvVwyY2Tpy9jTeABuHinYGNYJrbG5SAx7Yw6EVzEuQtlKLtmnK6hH4q5RJFdz1wmhTLHK31dxU9332Ae1CmKHF+or7L3ODiZiJNiOFmFMsiTBZcy4snE2dlZ65bm36c48qt+RmLM2PEYN2EKRo0e8+BxKyurJimKWr67h8pzx1ER64ObE/+Ba31bocJnCq5O/BBly6fi7JutkPfyr3Bx9kDczIzHd5UVVb9Yt1AUi6+WobDokhLEMiWAdzVZ5FIvFy4A588/Gj7P17HKWFlpnsWfdTG3KOrCSiHHE3KyHOUlK+uItjSUrpLY0FRU3EV8RhG+dEiqF5bL07AzObfBQymqx5yiyOohLwqrz3rW3X2Jz7GiyCEtxpz1fLO0HDvnr4Rbu34ImbIYa3qNx7A/v4suv2qN0Rbz8W2vZeg5uKrLWdF3RAgsBm9Ez2/88PXrY5Qkvq5VFymK/osNv8+6iKJUFE3OoyqK71gtxc+DTmkVxT947cZbUzzQKqQUP91wHP+1cj+eboLjFA2pKPLAzAMIRYFdEDqh4JUmHzMlrJqxS5QyxJ95wNLNMLx+47Ymg7ZL4/DFNwF4r9tqtO96nw5fr0HHXn74rN86dO6/Ht3VwabXiCCMsd6K2Q7xcPJKxvrQTMTsOoXkjLM4fKwIp/JLUXTpGsrK6y+V5hBFVls4kYUHPV1FgBU/vh8UPEoiJY//Fo4x1FfZexzVRVF3lxB9osi/WWsYwfjxsF2wDK7r47Am6jDWbs9CQMxhrAiIhPUsO228I++n25CYTBSr8t2tGwhYao3SRd1w09MKV6zeRtmyiSj44i8odhmJimN7tEkxhoaiGF92DfsrbuFCSSny8nmXlWKUlFQq+b/f7ayPwsKbqs2KcOhQNnbsSGjwZCBD01iiyLDNKId16Uo2JNzelSs3sCu9CEPd0vC5XQI+s4s3iCGue7Er+ZS2uL2xYm5RNOes5/OHT8Lzy3Gw/3tnuL3VB+vnuSBu2w6sX+WHIHdP7N0ejUWOofh2zCaMmR6qLlKjsCvuMCyHquP3/3yGbj96UZNEy1avYMqfPsDGUXYou6CungyIiKKIosn57yV++IPfOe37n69LwgsLd6jvi/DidBv8dVkC/jFvNX6z4RL+a1kAXp7pgjZTXfDMysP4cTMXxZrhrFtzLc1BKeS+9/14pO9QcPEawradUNIXrQRxgxLCtQ2iU98AdB0YqEQyBP3HhmHo5AiMtdmGuU67sWzVXqwNOYzouJPYe+A8juUUI+/MFRSqf0P59dpdX+YSRXYpUwgpdFwzkSLHmcms8nE2MquL/Ldwssv3Vb7ajBo9FCNGjsWYMRPVwd9Ke4wyzgolq5VLnV3gpk4m1bueeaJgFzJPHhxbWp25i93gGZGJNTtOIiAuF4G787A56Qwi9p5F4PZ9sJ1jp80+bUhMLYoMlwe6XnQWN2LXoHTGp7jqPRWXnL/F7fzDtIyqVxkWysnW4qvYWlaBYxWVOF5+A8fOF+DI8Rzk519QsnhLSRErXXyPryM7OxfJyXuxc2csIiLur1tKGrq8kKFpTFE0dnTiyXNlhRL20tJr6iLxMny2nMSgpcn4bMYOfDpte50Y55qOjH0ntUkzxkpLHqPo0W0yhv/oDVj98h2Mfa4jev2hLQL91mkVTVaMuW8HBYVguq0DVnn44HRKFOIiojBmlC+GPPspvvnVy+j/y1cx92+fY9mrFvB4uy+2z3U36CJCRFFEUTCAhohiY6Ti1h3k5JXAa91+DJkchS++DWwUugzYhD6jQjF0ShQ2hteu7JhbFFnhoyiyKsBFy2uKIscTcrJLTVj5W7psFhLTVyMxJRG7du/Htu1pWOMXgaitsdo2ptvOweTIDFh7BWhjlFhN4N/kZBZOpGGXNEW0OhsidsF/56laohiWcgarIjNhM9+5wRUYc4kiJ1dQCisvZKN8x0rcuZhX9Wz9whNaxPnL8Dt3FbHF1zXi+PVCKbZlZSM2JU1J9GklMTdw4UKhdrxl119NGjoZyNC0BFHUCSI/O7zI5bmSgsfz2vXrN1BcfA0Hs4rhHZKN/nN34dNx0ehoFfVYbNy5LNgJo140t2RRXPTWAAx/6nWMavU2Bj/TAeP/8R7GD52FaXPd4LhsJVb5rNGOY7PtHdWxZC6cly7CSs+V8B1rA/cPLeD0ZhcseqELlr2iJLFdX6xobwmPYdYiigYgYxQFgzBkjGJj59CxIixcnozeStC6DwtGt6Gb8NUQxeBAdB8SUo3N+Hqoeeg9KgzeAfuq/oXfxxyiyM8iD9Q8YLPCx4ofq3s8mLPCyK5hdhtzjCK/1qz6jZs2Dm4b5yC7KAgFZWG4fCMEl66G4sDRBIRsPY6ktOPaNgZPmoE3Qk/hC8cN2t+iPFESORyAs5d5guHrqhObuA+xBy/AOTQLLpuzsCwsC0s3HcZ4jyR0swnDTHsX7V7UDYlZRdGI4Qkt7NRFLM0swtqTl+Fzohj2By5gVPIZWCbkYkTscThG7kJk1Faty4/jxni3kZo0tCJraJqzKLLN+T6WlJRoY3t5juT+xwXkCZflYXtyOZ2ysnIUFFzBoazL8N6Ug56TduCjIVvw4eBwvTj4ZCE9PVPv0jv1zRMhij9vh7mvfYVNtgsQHxunth+CScPmwLLrWFj2n6EuRpeg9+CZmGyzBEE+a+Hd2RLu7bvBsU23+5XEdn3g9d43GPvsB3AbYSuiaABSURQMojlVFG0Wx2Dk9CAMmLAJw6eF4ethgegycCMGT47CsOlR6Dc2HD1GhuBrMkKJ5PBN6D48CL1GhaPvmCiT8O34CCxblVr1L/w+5hJFzjrmZJbBDmtg5eqvhNFBk0ZOZuEMaHYbUxS5hE31it/U6bMwaGkfRB4diYwzNjhaOAP5pVNw6doklFdMQORuT6QfCdG2wZPBqCm2GDd5qja2kILIcYh83NLSUrv6141b0hGffAAJhwsw238fRizbg/5L4tBzXgy62Ebh8+khmL3YXVvnriFpzqIYknUek2JPYtLOk+gbfhQWoUceYtjmfdgUGv5gcgH3p+pwDBmlxpxprqLIiTA8MfLzwnMjK7FsPy7CzbsW8VZ1HItHKWJ3Pr/Py8vTXn/+/GUcOXoFnmtPoOfobXi/V1At1mzMUb93ouqvGSdNSRSToqKQ5OyMHepz7e/gUEsUOXbRkDh/NFITxRFPt8Xg//cOQlatw7bwSPj0GwmPD7prLHn/a1gNmo2hE53g7hGAdSMmw+2dbnB4IIl9sapDf8z4VydtQsv6ucurtl63iCiKKAoG0JxEceK8SPQa6Y/OA3zQd/Q6DJq0AR16eiphW4d2X7mjXVd3dPrGF33GBKH36BB0HxqMwVOiMFRJZN/xobAYEwwL9XiPUfe/9hyzGf3GRWLgxO0YVA8GT9qBfqPD4bq69n2nefA1hyhyyaDho8bgX3M3os0sf0yZNlM7gFMGWTXkV4oiJ7qwu1jHtzNsMT7wdaxMaYOoIx2QnPchjhS8q2SxHWL2d8CARbPgF+ugTYIZ0qsXNnzZBaMHDNDElHD9RN6VhcsjsdLAE011du099EhR/EKJor3TyidaFAMzzqD7mv3otprsq8Ug3xQEq5Mnb5vIBdNr3mWEsmOOY3D1NDdR5K3+ioqKtHUVuWIDhzpQCjkhjyQmJmoSzjamHPG2fqzU8jm2OWWSM5kLC4vU717CocxSePtno+/waLTvvL6KDYjalq/EsmHV8ZppSqJ4WB07vnvmGdx75RUkjRr1kCjy88HjkCHx/HrqA1Ec9B9vY818VyTEJ2DaO70x6ndvYU7rj+HavisivX3V+xOPMOcVcH+vG6b//n2MbdUOU/7jfU0W57/UBV//5EV0+/EL2Opu2DqmIooiioIBNCdRnGAXgX93csarX7jg8/6eGGsTgI/6rMDH/TzQe5SPkkQP9FFfx6nH3++5HKOmeqPHwIV4t/McvNt1CboN9cPQaeEYPkMJ5+jNGDQ1CoOnR6LPBCWPYzahh1Uweo8NRZ9xYbCcEIGBk7dh+PQ4jJyRoJextgnoMSwEPhsOVv0Lv4+5RJFjBHlV32OcDfqMt9bkcLI6kXA5HI5fnDp1qiaKXBSdB/f7LMHXS0Zg9rZ/Ynnis1i/789YvP1lDPHujj4ulnh+1GL8acAmfOuwTdsO75jzTY8e6Ne3r1ZB5Ex3CiLXWuRdVnSzIauTmJ71aFGcsRlL3f20f39D0pxFcX1iLj5csBudHZP00t9tF4JCt2jCwgoXxVDHiRMnUFBQoHWhmjPNQRTZtjpBJOxq1kFR5Ixe3nOe6wNybC0vcihInATGe6Sza5X7L5/jWF+OBaVMcob56dNncerURaRnlMB7TTZ6D4jAR19uQGxcvnZXGGOmKYliimqXQ+PHY++4cQicO1cTRY5d5rjn+lS1/QfbaaI48qdvYdBv38Hi/pOUKMbDfZI9ev64NXopvmn1MgLdVmnd3hun28Htna8w/tfttN8jo1u9hb4/+ze6P/U8ev60DZICo6u2XreIKLYgUey5MhLtd5cLJuJdxXMG3Ou5sTPeLhwvdXLAa52dMWjiGky2C4DlOB+0t3DFwImrMWyqLyzH+uAb9dgrXzrBeo4zvuzcGYMGD0PPPgPw6Re98PfWHdDtm5l4t7sj2vdwQbdha9B5sC86D1mnxDEcg6dFKFEMxTeTwvHt1DD0GLsRX40KUBK5SYlYKL6dFKleF4OR1vEYOysevUaEIXXf+ap/4fcxhyjy5MdlbDhOcFHXrpiopJHL5VAcORt50KBBWhcxZYMzoTnhhcx3dMMHDlMxPvx1TRT90/8Xb82fjz+P36qIfkAP513a9j799FN89tln2lfep5mLeXOpIj7WpUsXbRkdnmSqk7zv6CNFsYt1GLbsSDFoTJG+NDdR5MLQrGzx5Lo1JQdfzY3DJzN3opNNbC36zY9BsBJFnqi5TAm7QnXcH0dXpnWpmjPNQRR5Xjp79iwKCwsfyCK/18G243hEdjmzksiLHMoRJZHLPvGCijP7KYlcdJprBnIMnu6mArzPfE5OruKi2kYp1gXkqs/6BW1yjDFjTlHk+ZxDVbgEFj+7XO2A/7+srnLtSrYPh5dQoimI7KXgv6++yzPFLw/ExP/86P5klr98iE0uPtit/laYfyCGP/MRLJ56ET1/1BrrHL00UbTu0A9Wv2+HUT9784EoDnzqFe115NvftMXJ9MyqrdctIootSBT7eEeiW+o1wUR0VbzgGF7rg9JURdEzIBmdh/rg42898NVQL4yx8ccXA93RtrszRszwxVT7AHz8jRu6DPFA68+WYIGDlzZGj4vJsopgZWWl3f944FArjJi4EB980gPzF7tjhJU1Xmpngfc+H4HPe09H9yFO6Gi5Al8N80OnAb7oNmI9hllHYJhNJPpOCEGfiSFKIsMxaHI0xs2KxaXLtU/Y5hJFdv+y4jege3f0t7TUfias+vHOOewmpijytog8ARJ7Nx+8tDAC7d2dsDThn3BPfB4vLQnGC4u24Tn7eDw7LwF/nb8TQ9eFacLJqiJ/nycLjn+kLL799tsalEVWZwICAh4i9cDxR4ri13O3Ivtsw6qJTHMTxczMI+rYmaLejxScPp2PtMO5sFmxB53GRuHDUZHoOCbqAb3VBUtIaIR2MtZNsiCUHVbMOHO3oXckMTTNQRRZfaVccI1O3b2eq8NbA1L2WFlkFz7HJLKrmccI7rcUJJ0gsspIcWKFkft+VFSUVl3k77NLOjc3H9nZl3D8eKHRq87mFEV2x7OiyLUUeXzg/y+lmReXrKxyNQU+zuc5hIWvpQPUN7yv8/HYNCz7fCxWjZuPG9dvaMMAWFXcG52A9TNdMPGlrtjg6qO9l5Pb9kSvp1pjyFOvPRDFwT95Db3VY31/3AarRtgZvPi6iKJ0PQsG0NyWx7lz9x4KL5UjI+ssImKPwMV3N8bbb8agaWvxxZAVaPu1Ez4dsBwvfLYIIyctwudfdsWnnb7AtOnT0aOHBTp16oQJk21gv8RDW7OLVQLKJJeK4VU1q2XWds4YYjUHFv0n4qOvJ+HdrjPQ3mIBPunvhrcsHPDJIE8MnRmGgRO3wW3NAb2VMXOIIj+DFELK2hdffIGuXbuiuxJGwu9Z9evfv/+DEyGrJMR5lT9e80jC8x7JeN/fA2+vWQ2b2KFYkdYNn6zzxb9WpOIFzzjY7+SaiiPRrl077W+wOskTKE8grGS+9tpr6Nixo1aN4X2hq5N+OOfxoniu4RUYc4giu+o5eUc3U7whODi4KeHegsjIXWr/2Kd17bG6FbVzH4ZbR+LtnoF4v28IOvTjONoQbA6L0p6n4Oi6T1lF5D2MCe9nbKy7k9QlzUEU2SXPChgljxVDzmhmhZHSyNv9sfrNiyfuy5wExioa5Y/d+RyTSDHU3b6OcsT9nfLISUWUFn7P8x+HALDSy4obxd/YMacoNlYqK27jxtX7t75k5ZxjRPl+MbdvViB1T7LW5ot6j4dlq9cw9Ef3JZEM/fmb6PdUG0x7qTtKzhdpv2NIRBRFFAUDaG6i+LhcKbuJA0fPIXTHYTj4xMFqXjA+V/LYptNMfGo5B69++C1eea8HOnbujwkzF2PMGCttGRlOCGHljN1O7GZa6OgBT28/7UTChadZVXrjjTcweMgwPPvPV/FmFxt8OdQHQ6fuQOr+wqq//nDMJYp9+vTRxg2yCqATXordv//9b7Rt21aroPJqnTLH/zeyVvFx4F603pSp8U7Qeizf8ztEZP0evvtao4MSFD7eKSwJu9VnnWsyjh8/XpPF1q1b469//SueffZZPPfcc5p4U7ZZsdXBA/7RU+dbhCgaMxkZWUpUopWMrFUCEqykIwH79x9GZmamVglbtzEWPQYEoE371ehmuR5h4dGa4OgEkYvOUxDZ7Uzp2b9/vzaWjAf9hnbj1yXNZTIL24JyyAWc+blgxZtSRwnhBROHX3C5KH7ueaHFfZiPs01ZcWS7UjbZtvwc88KH+zXHK7I6T6lhtyzXFO3bt6+2vxs7T4Io6sIKOS/IeG96XsjqwsotRTH/dD5O7NkP6791fSCKA3/8Kob9n7dxYMuuqlcbFhFFEUXBAFqSKFYPz5t3797D7co7KL9WgcMnLiB05yEsXR2LUXMD0WuCD/pPX41OAxahzcej0b7zcNjMd8Wb73fGiEn2mLfQQeuqpnix64WCxW6YkaPGoG2XqfhyuA9slqTgYrH+cWLmEEUKAyervP7669pYwenTp2snRd7ZgLOVn3/+ea2bmKLIEx2f0zFzSxxei8vBK3En0TYhB29HRsNi0xCMjLDEB3HJeHvXKbwZfxLjUo7CK/MUcs5wIP+pBxNjKNasvrLqwv9XHhPYTcrjAteTK7txG/GH9IviCJd4XFXPNzTNTRSTk9OxaVOU1oUZGxun3pMd6udtSkB24+DBLO3EuHt3ImYtDMaXvf3V8zHajF2KIoWRskN54XvA9qassBpGIeL7a+qu6OYiirqw2kph5Jg7jq2jDOqWv+ESTvxs66rwrAxyXUXCtiasxLOLmu8Lu/9140VZceSEMY7V4/tginZ/UkSRUs9qLiu13IdZqdWFFXced7mPlxVeht2/+3wvik+9gvUTHXFXXTjVJyKKLUgUZcFt09OcFtw2VipuVeJK+U0UXCrDgWNnEbLjIOZ7bcP4hZvQ3WoFOg5Yive7jsLfX/4APS2HwXaOPd5q9642OeS5v/4drT8dg65j1sBn41FUVurv+jOHKPIExfFFlMJPPvkEr776Ktq0aYMXX3xRq/z98Y9/xOeff65VQVj146K5hAfl2JRUjDl2Ht9kX8KkvBJMOa3ILcSUk+e17ycrJuRdRoesAngXlOGWkm4KICtaHB/H4wCrL/zKgfz8t1SvavH77HNXsTomG3PW7sMMn72YujIZLiEHcfKCcWbrNnVRvHvvO+1Wk7okJ6cpiU/Axo1h6qS4VQl8spLrIiV/eerxeCUlycjMPIb4jEPwjEnG9p2x2rp/HJfIqiOFhePquG/xPeS4OS51xAsEVsmMPU6uZpqbKOrCSiwnAbGqzh4ECiO7mSnslBO2KZ/nrGgdup95nuN4RL6e1S2Oz2M1khdj3PdNVcl9kiqKj0p2djY6dOigXQhVlN9AwIiFGNPqbYz+2VuY94YlSs4a3uWsi4iiVBQFA2ipFcX6pPLOXRSXXsOps5eQlnkaAZFpWOwdCau5a/DZQDt07DsdHbqPRFuLWehmtRqp+x99oDKHKDJcIoVj2Hiy47IWHITOMXWsJLZv315bMJuVPlafWIniIH9WIil859X/r1/ZTfhfq8CW67cQUY1QhZd6btXVm7jZgJPh7Tv3UFp+CyWKK9duafJkrDQ1UaQ03Lx5C2XqIuTc+YsouliKi4qSkqtadZvVrB079qjj52Fs356qRIXLrhQo4f4O+fm3lPTnITIyXj2fjmPHsrXqFSWRXaJ8D1nhYjWYVVxWxDimVgfH1lHgTZnmKoq6cEwnBZBdyRQ+jldklZCVclYMHwVfw7GKHILB3+X7Ycy7sOiLiOL9ijDfL91+fev6TRwIiYNzx1E4unOv+sBpD9crIooiioIBiCj+cO4pASi5eh3H8wqxe18O1m9Ng2tAIq6U3ap6Re2YSxR14UGVVT2O92FXJQ+wFENelbP7jXKo7+R2Vf2/7VTC6KXEcZNi89072Ki++ijS1OP169gxT5qKKFaqtjp34SKyc4tw5EgheN/fAwcylbwfVnKYhaNHs3Eq9xxKSlkdLFJCuA+xsXuQmHhAiWMy4uLSlMCXoqjoHgoKKpWYnNQkMjX1gFZJZDWYVTBeBHAYhD44po4iZMo0d1HUhRVGyiGlm/LHtmM7c+IQL6R0sOuTba+b1MJuUVN37+siovjo3LxajnvqwqshEVEUURQMQESxfmGX4uMOJ+YWRX2hPNZ1ZiwVI0dJ4wlFvsK09RLjpKmIIieaBAeHICg4FDvjdiMpiYJ3Vu0D+5UMpqqDPqUwSf2cjqwjJ1FQeAll6hjNLs3Y2F1aBXHnTt4lJAXnzpUpyb+MY8fylTAeQ3x8gtZl+kNwHBcFyJRpKaKoC6WPFUPKoG42Myu3vLjiuF7e9pKTLCiRpq7W1oyIomkjotiCRHHg6ijMPV4hmIg5ivZutccoDpswtU5yIXl0moIotvQ0pa5nCjm7ltk1GR29Hal7ufxNHk6cyNMmqqSkpKt9IkORpp7bj0OZJ1B65YaSlUpNVvbs4S3l9iImJg5hYZSWNBQVlePAAU5w2f2DcPwihxOYMi1NFHVhu3ESC4dn6GY2c3HpyMhIrRLfGHm8KE4x2djIJyUiii1IFLt4RuBXEVcEE/Ib+9oVxcl2i7TZlpL6J0GddJYF1pZwMmqatcm7CVt6eKIcN2mK3vatybipM0xebdOFVSpWpDjxITE5Ret65njDhITdiItLRnx8qvo+BenpvD0al8U5jqKLnAx0R7uLSHp6hhIVTlbZpl67W6twsfJYE/4NTra4ePGiVtE09YUd23vEhLq19+SpzfNCUyeMHLbB81xj/j88ThSnzLA2Wxd4Swz35VkUxQIRRb1PGgvpem456Ot6dl4XgiR1VS2pf1b6+CIo9XCttiW2jm7qZHS66pWS+oQzfCdb2+pt35rMsF+kHRjNFZ6IeCHAsaGs9GVmZqkLh92IjIpBaOgWbNkSreCMWy6VE4OkpIMoLCzDzYpKTWh5jOXv8GTBaiNlkBduPOaywsVtU2rMWVXizPZJs+fpbd+aTLG2MfkMbFOmsSWXY4ln2Nhg76UK/e1rtwCXS0qqXi0xNJTsqbZzkHpJv4iLKBoJEcWWgz5RjMrMg5OrW9W7IDE0rAzNWur8yAO9f2wKNgUFV71aUp9QoGY7u+tt35o4rg3ShgI0RnhS4kGZVar8/DM4lXsaGRn7Eb1tGzZuDER09Dbt59zcPPXcfSlkKCuUQh7LKQ6NLS+cce0SEKK3fWsyfZEzzp2vff9zSd3CCvFEmzlIv3xbb/s6BWzG7sSkqldLDA0nMtm6rEBG6R297SuiaCTMJYrdvSLw1+1XBRPy3wvDan1Q0tQBaoGXr9bFJTEsrAh5rfHD5vSjtdpVx55zVzHdboHZukNbWihNfgHrsWHPPr3tW5OtWafh6LbC5GP4Hhf+bR6XedzkrPRtMTHw8lqp3V+Yy7TobjfH1zS1UFQXu7hi27Ezetu3JhsS98Nv3fpGl9vmGs6KX7R6vd62JYkXymDv7GrWKnlLCVeFWLLMDXG5RXrblogoGglzieI3qyIx6uANwUSMVLzuEq73w8JqmO1iR61yIwf8uoXit2ZtAALiU/W2aXUoOQEbNjaqvDTHsLs1PSMDzn4bH1kR0IdX2DbEbN/R6Psy//1c+3Lt2rXaxAnKYVMer8p/79bobVi5ZYfedn0US3zWYv8B/fdBlzw6PIHPcXBBStF1ve2qY8uBHCzzXKmdjyV1yzUliWvUBcym5IN621SHiKKRkK7nloO+rmcdacW3MHuZB1xc3bTFfyX6w6vUrdHRmGw7B8GPGJdYmzvw3ZEIJ9flD7obJY8PpXq9kmsn/0Bt39TfrvpJL6nE8qAIeHitbNbj58wZ7tde3qvgGb4dGar99LXro+D7s9jbH4GbgmXiRR3DWwvaObkiLu+i3jatybZjZzFjwRL4+vnL5MPHhBdmQcHBmGm/CCFpR/S2ZXVEFI2EiGLL4XGiSHiC3XrkNOa6r8KAsZMFPYycMRteETsfOUvxcUQfPYNpCx0xb9ESeHh4wtNT0IeDswvGWc/B+t3pap/UP3brh2AFMnz/CYy3nYfFDk56/47gqe2HC5c6YOKc+Qjbdxz7DKjcVofHjrVxqZg4yw6OLsv0/i3BE27L3TF1th0Wrw5A4vmretvyUbDnhxWyCXMX6T02CZNhZWsH/9hkpBQ+vkqrQ0TRSIgothx+SBQF08MxoTtPFiD8QA7CDmQLNQhXRB87U+cD/Q/Bk2vMiXPadvX9vScdtsv2E+frdeGjD3ajRh/Nl/Z+BJGHc7H7bKlBQykE0yGiaCTMJYqDVkfBIadCMCEfLte/1p8gCIIgPGmIKBoJqSi2HJpORfEWwndEYJHXCtg5L4Kd+3L1vS+Cj/zweJ29p45h87Erep8THk2iajcX1d4LPVxg6+iAher7FRHpSNXz2oe5hdDU/Ui9rO854XHsOnYQzqqdF6xwxiwnJ21/XxlzGHv1vLY6GZfLEbw3Cxml+p8XalKJrbtjtPad57IEc5e7qe99sOHAeT2vfZi0/FPYnPXoWbFC3YjPyoAT93V3J8xyvr+ve+88ijQ9r61OxqUrCEo7pvc5cyCiaCREFFsOTbHr2d/PFX4HLz34OaPkFlIv3kDqpQpkqJ/TL99Cegm7ae5o3YjBm93gtv2kdN3Uk7S8dNguD0eaTkJUO+69pNpbtXk627S0EmnF98cFphdXqOdyYGO3HHuKDJvgIHzPnqzdmONTbSaxauPv25w/365q8ztamyfmH4DNEl8l57KPG0pgsA9WJp3+/jHVtg+OJ6qteXxJu8x9+Q7S1GNbtvvCMWz//X2/2naE+hF/YCfs/RO+f+wx+3qa2td356TC1mk90rRj/PfbMRciikZCRLHl0NRFMeNSOVavXoLZK1fD1mEe1u4rQERsMJZsTkLS8V2wdg/CModxmOgSgNhzN2ptS/hhaopiTNJWWDs5wMFrIWavjUfy6RzMX+aJmNMFcHB1hN/OEAwbNRp+GRdqbUuoGzVFMSouBNYuzljssRDzNiYhNe8o5rr6IPZ0PhYtW4Y1kWsxbOxEbMwsfmg7wg/zkCiWVGDtWkfYeq3CHGd7rFKPb0+Jxrx127E3Nw3Wruuw3N0a4xZ5qf39Wq1tCYZTUxS3xGyEtdqnF61YgAXBe9W+nonZrr6IP30KC1yXwyfUB8MmTEXQ0dKHtmMuRBSNhLlE0XJVJEYcvCGYiOGK1x6xjmJjUl0UEw7uxDS3YO3KPz33AGxd/JFwvhiuKxwww9EdMQWV2By+Aivi8mttR6gbD4nixQIsWroYm09dV1f6t7DcxR4bs8vUwT0ENq5L4bGN3Z95mGXvgeTi2tsS6sZDolh0BnaLHRF5+ib2FZfBYbEdws5XIjg8QLW5I3wScpByPhOzHNbdr8DU2JbweKqLYkpOKiYt9tOqVen5xzDHyRuxF8rg4eWEmU6uiMy/gcjYtXCJyKy1HaF+PCSKhXmYvdAJ0WcqkHGxBEsW22PLhTvqPfJVku4I36Q8JOVlYLbLplrbMRciikbCXKLIO7P8Y8dVwUT8XfE/i2rfmaWxqS6KOxI2YNA0a218yyJPV9j7rMeuwkpsiViO4fN9kaJeI6LYMB4SxTM5mDxzHGavUO2t2nyu4zwEHi1HcvZ+TJ01GWsPlogoGoGHRDEvE2OnjsMcrc3dMWepHUJP3UFSVhIm2Fqr9r8qotgAqotiYnoE+k+cqo3H5fFkntdq7FSisj3WF4NnrcCe4koRRSPzkCieOoDRk8djrkfVvu44H+F56n05FI+xtrMRcqJMRFFE0bBI17Ppaepdz7uPJmO22waklCihKShGzIkLSMzNxpKVq+GzbgVWphdpoui2I7fWdoS68ZAoXi7GMjcHbDpWpp67gx1Zx5F46Qb8A1fBI2wL7FeHI1WJIscoiijWn4dEsbgIDi6OCM25po2X2555AsmXK+DtvwLeYSFYtH4HEpUoWi/2E1GsB9VFMfV0JmyWeiOx+A7SikoRc+wMks6ewxJ3D/gGesN9zxlEKFF0DHv83TuEuvOQKBYXYLGTE7bkXkeG2se3Z2UjuaQCHj7L4R0ahCWbErBbiaKN44Za2zEXIopGQkSx5dAURXFDkC82ZF3Wvs+4fAObwlZrFa55Dk5YuesQAreug3dCNtLOnsQczw3YuiccM5xXIjqPcqN/m8KjScs/hIW+Ox6MUYw/mAr75U5a1WW+VwCiszKw1DcUe4rK4bN2FTYev4D59hPgvSsH6TW2JdSNxONpWLJxz4Ofd6YnYN5yZyz0WI4FPpsQk5WCJWujkVx0BZ6+PgjKOoW59lPgl3pGm9BVfVvC49kcFQi/tHP3fy65jbCtazHLfQXsnZyxIiYVm+ODsTz6MPYVnsU8D39EpOzATIdl2JLdOGPkWhq7MhPhGPz9bU23q/a1W+6CBVzZwm8zYtTzS9btQEpRCdzXrEbw4eOYYz8N69LPN8q+LqJoJMwlip2VKP5iyxXBhPzGvumJoiAIgiA0BiKKRsJcojhwdRTmHa8QTISd4j03WXBbEARBEIiIopGQrueWQ1PsehYEQRCExkBE0UiIKLYcRBQFQRAE4T4iikZCRLHlIKIoCIIgCPcRUTQS5hLFQauj4JBTIZiQD5fLGEVBEARBICKKRkIqii0HqSgKgiAIwn1EFI2EiGLLQURREARBEO4jomgkRBRbDiKKgiAIgnAfEUUjYS5R7O0diS6p1wQT8rxjuN4PiyAIgiA8aYgoGglziWIvz3C8H5YtmJC/22/A4bK7gtD8uVqFvudqYshrBUF4YrgqomgczCWKydlnEJSaKZiQ8IxjuHn3O0Fo9ly7fUdD33M14euuV97V+5wgCE8u6r9GjYiiRCKRmCi3b9/Gd9/V/SjP10skEklTioiiRCKRmCB3797FnTt3qn6qW/j6e/fuVf0kkUgkjR8RRYlEIjFBKisrDZY+vp6/J5FIJE0lIooSiURigty6dcugbmddpPtZIpE0pYgoSiQSiZHTkMogf4/d1hKJRNIUIqIokUgkRk59up11ke5niUTSlCKiKJFIJEaOobOdq4e/J93PEomkqUREUSKRSIwcEUWJRNJSIqIokUgkRg4nsjQkIooSiaSpRERRIpFIjJyGil5DRVMikUiMFRFFiUQiMXIaKnoiihKJpKlERFEikUiMHBFFiUTSUiKiKJFIJEaOiKJEImkpEVGUSCQSI0fGKEokkpYSEUWJRCIxcqSiKJFIWkpEFCUSicTIkXUUJRJJS4mIokQikRg5IooSiaSlRERRIpFIjBy517NEImkpEVGUSCQSI6chsnfnzh3cvXu36ieJRCJp3IgoSiQSiQlS3wkpDem2lkgkEmNHRFEikUhMkPoIn4xPlEgkTS0iihKJRGKCsPuY3ciGRLqdJRJJU4uIokQikZgg9akOSrezRCJpahFRlEgkEhPFkAqhVBMlEklTjIiiRCKRmDB1qRLK2ESJRNJUI6IokUgkJkxdlsppyLqLEolEYsqIKEokEomJo5PFmpVF/iySKJFImnJEFCUSicQMoQyye5ljEQkFUSRRIpE09YgoSiQSiZnCCiInrBAK4g+NXZRIJJLGTosSxTNnzoB/RxAEQRAEQWg4dKsWIYonT55EXFycIAiCIAiCYEToWPrcy1iYRRQFQRAEQRCE5oeIoiAIgiAIgqAXEUVBEARBEARBLyKKgiAIgiAIgl5EFAVBEARBEAS9iCgKgiAIgiAIehFRFARBEARBEPQioigIgiAIgiDoRURREARBEARB0IuIoiAIgiAIgqAXEUVBEARBEARBLyKKgiAIgiAIgl5EFAVBEARBEAS9iCgKgiAIgiAIehFRFARBEARBEPQioigIgiAIgiDoRURREARBEARB0IuIoiAIgiAIgqAXEUVBEARBEARBLyKKgiAIgiAIgl5EFAVBEARBEAS9iCgKgiAIgiAIehFRFARBEARBEPSiieLNmzdRUlKi/SAIgiAIgiAIpLCwEP8fTLzX6fH3oR8AAAAASUVORK5CYII=;" vertex="1" parent="1">
          <mxGeometry x="250" y="230" width="580" height="409.57" as="geometry" />
        </mxCell>
      </root>
    </mxGraphModel>
  </diagram>
</mxfile>
